<?xml version="1.0" encoding="UTF-8"?>
<svg version="1.1" xmlns="http://www.w3.org/2000/svg" width="500" height="500">
<path d="M0 0 C-0.57140358 3.65883263 -1.53328347 6.29671504 -3.44921875 9.45703125 C-4.21625122 10.73670776 -4.21625122 10.73670776 -4.9987793 12.04223633 C-5.55605713 12.95642334 -6.11333496 13.87061035 -6.6875 14.8125 C-7.87578036 16.79119824 -9.06325203 18.77038231 -10.25 20.75 C-10.86746094 21.77609375 -11.48492187 22.8021875 -12.12109375 23.859375 C-15.1873694 28.98470894 -18.18631307 34.14887501 -21.1875 39.3125 C-25.43208371 46.60063136 -29.68657293 53.88253632 -33.96826172 61.14892578 C-36.63065507 65.66870369 -39.28616232 70.19247871 -41.9375 74.71875 C-42.28991257 75.32036453 -42.64232513 75.92197906 -43.00541687 76.54182434 C-43.73606582 77.78916295 -44.46671255 79.03650286 -45.19735718 80.28384399 C-51.12649285 90.4054486 -57.07095337 100.51754778 -63.04614258 110.61206055 C-67.5517218 118.229116 -72.0276711 125.86339945 -76.5 133.5 C-81.99357873 142.88040722 -87.50302708 152.25107517 -93.04248047 161.60449219 C-96.10808484 166.78512593 -99.15838589 171.97439845 -102.1953125 177.171875 C-110.00146917 190.52859511 -117.84903733 203.84931077 -126 217 C-129.08841779 214.30713122 -130.95919596 210.94543133 -132.9921875 207.4453125 C-133.37412262 206.79670258 -133.75605774 206.14809265 -134.14956665 205.47982788 C-134.96869693 204.08816116 -135.78588621 202.69535049 -136.60131836 201.30151367 C-138.7528949 197.62482115 -140.91944954 193.9569822 -143.0859375 190.2890625 C-143.72888763 189.19969391 -143.72888763 189.19969391 -144.38482666 188.08831787 C-147.68220711 182.51164364 -151.05936524 176.98953304 -154.5 171.5 C-159.91041648 162.85189524 -165.12208498 154.09352696 -170.3125 145.3125 C-176.2924521 135.19759496 -182.3294369 125.12500325 -188.5 115.125 C-189.1487207 114.07070801 -189.79744141 113.01641602 -190.46582031 111.93017578 C-193.43232671 107.11853586 -196.42262201 102.32557926 -199.47265625 97.56640625 C-199.99859375 96.73544434 -200.52453125 95.90448242 -201.06640625 95.04833984 C-202.02923352 93.5289959 -203.00364207 92.01689776 -203.9921875 90.51416016 C-207.05365657 85.65538126 -207.05365657 85.65538126 -206.79614258 82.51000977 C-205.9243956 79.76164097 -204.97363118 78.41362213 -203.0078125 76.328125 C-202.08246704 75.33848755 -202.08246704 75.33848755 -201.13842773 74.32885742 C-200.47399658 73.64283447 -199.80956543 72.95681152 -199.125 72.25 C-198.4431665 71.53626221 -197.76133301 70.82252441 -197.05883789 70.0871582 C-191.71539742 64.57047803 -186.10212866 59.66431994 -180 55 C-178.93367133 54.13722795 -177.86999714 53.27116783 -176.80859375 52.40234375 C-167.97857952 45.2229423 -158.70377587 38.93735682 -149 33 C-148.35869141 32.60570801 -147.71738281 32.21141602 -147.05664062 31.80517578 C-104.35692897 5.86454784 -49.72422268 -6.69468362 0 0 Z " fill="#017AFD" transform="translate(273,5)"/>
<path d="M0 0 C81.84 0 163.68 0 248 0 C246.56386092 4.30841724 245.47293907 7.21065872 243.234375 10.95703125 C242.68136719 11.89160156 242.12835938 12.82617188 241.55859375 13.7890625 C240.66333984 15.28566406 240.66333984 15.28566406 239.75 16.8125 C234.72263147 25.31635112 229.7974395 33.86433717 225 42.5 C219.90326495 51.65621986 214.68914163 60.73446851 209.38842773 69.77392578 C204.2146013 78.60539697 199.12865752 87.4858549 194.06689453 96.38183594 C190.62727205 102.42333996 187.16341024 108.44890848 183.65234375 114.44921875 C182.94838116 115.65570036 182.24452203 116.86224235 181.54077148 118.06884766 C180.2071883 120.35522765 178.86579266 122.63637543 177.51977539 124.91552734 C176.92543701 125.93469238 176.33109863 126.95385742 175.71875 128.00390625 C175.19216797 128.89924072 174.66558594 129.7945752 174.12304688 130.71704102 C172.77929584 133.02461387 172.77929584 133.02461387 173 136 C174.43750191 137.68798827 174.43750191 137.68798827 176 139 C129.91058825 134.56094845 84.71675492 106.50014178 52 75 C51.42717285 74.44908691 50.8543457 73.89817383 50.26416016 73.33056641 C42.64201572 65.95555986 35.41972189 58.46627752 29 50 C28.52240234 49.37706055 28.04480469 48.75412109 27.55273438 48.11230469 C18.590776 36.35461708 10.9742228 24.02984942 4 11 C3.59539551 10.24493164 3.19079102 9.48986328 2.77392578 8.71191406 C0 3.37809623 0 3.37809623 0 0 Z " fill="#017AFD" transform="translate(27,351)"/>
<path d="M0 0 C0.66 0 1.32 0 2 0 C50.75 84.5 50.75 84.5 52.62792969 87.75512695 C53.86810761 89.90473634 55.10834127 92.05431358 56.34863281 94.20385742 C59.2735023 99.27309212 62.19780833 104.34264936 65.12011719 109.4133606 C66.49806938 111.80426597 67.87634172 114.19498672 69.25463867 116.58569336 C70.22540982 118.26983963 71.19571874 119.95425231 72.16601562 121.63867188 C73.05063477 123.17297852 73.05063477 123.17297852 73.953125 124.73828125 C74.47036133 125.63587158 74.98759766 126.53346191 75.52050781 127.45825195 C76.53593633 129.20274474 77.61821274 130.90949598 78.75292969 132.57885742 C80 135 80 135 79.86083984 137.11645508 C78.89700817 139.22534939 77.86960974 140.5032512 76.2265625 142.13671875 C75.65478271 142.70938477 75.08300293 143.28205078 74.49389648 143.87207031 C73.56879272 144.77070801 73.56879272 144.77070801 72.625 145.6875 C71.99086182 146.31108398 71.35672363 146.93466797 70.70336914 147.57714844 C65.39795496 152.73513441 59.84822798 157.4661675 54 162 C53.04222656 162.77472656 52.08445312 163.54945313 51.09765625 164.34765625 C29.31598973 181.67960023 4.3500441 195.11387348 -22 204 C-23.24644287 204.42104004 -23.24644287 204.42104004 -24.51806641 204.85058594 C-37.10940231 209.02393912 -49.87988929 212.03906395 -63 214 C-64.205354 214.18095215 -65.41070801 214.3619043 -66.65258789 214.54833984 C-78.46426225 216.19084949 -90.15619679 216.23365847 -102.0625 216.125 C-104.00845887 216.11493665 -105.95442285 216.10581681 -107.90039062 216.09765625 C-112.60039021 216.07593946 -117.30013609 216.04160021 -122 216 C-121.41921503 212.30398418 -120.40940419 209.56292492 -118.55078125 206.32421875 C-117.78423218 204.9777124 -117.78423218 204.9777124 -117.00219727 203.60400391 C-116.44459717 202.64155762 -115.88699707 201.67911133 -115.3125 200.6875 C-114.44226196 199.16648682 -114.44226196 199.16648682 -113.55444336 197.61474609 C-108.85845806 189.42716501 -104.08721763 181.28309947 -99.31274414 173.14111328 C-95.03625737 165.83014005 -90.87145269 158.46183319 -86.75 151.0625 C-82.57167028 143.56116117 -78.34164757 136.10303037 -73.95678711 128.72070312 C-70.00094219 122.04387732 -66.15590204 115.30441191 -62.3125 108.5625 C-57.06605483 99.36075479 -51.80063709 90.17069854 -46.5 81 C-40.97029279 71.43094906 -35.47501992 61.84273131 -29.99780273 52.24359131 C-24.39909127 42.43285778 -18.76518815 32.64300346 -13.11499023 22.86181641 C-8.72073977 15.25398448 -4.34546819 7.63580673 0 0 Z " fill="#017AFD" transform="translate(350,278)"/>
<path d="M0 0 C51.81 0 103.62 0 157 0 C158.84590541 4.92241442 160.39922593 9.09084718 161.53515625 14.08984375 C161.91184448 15.74705444 161.91184448 15.74705444 162.29614258 17.43774414 C164.81304916 28.93180462 167.21801503 40.24326039 168 52 C168.09837158 53.37961914 168.09837158 53.37961914 168.19873047 54.78710938 C171.74078628 107.68860473 160.54780334 170.70872349 126 213 C125.01 213.66 124.02 214.32 123 215 C117.62067046 206.37307391 112.4505623 197.65863368 107.4375 188.8125 C106.03234523 186.34182403 104.62548727 183.87211894 103.21875 181.40234375 C102.86582382 180.78224426 102.51289764 180.16214478 102.14927673 179.52325439 C98.60215944 173.29361915 95.02320336 167.0824978 91.4375 160.875 C90.82318115 159.81128174 90.2088623 158.74756348 89.57592773 157.65161133 C88.33707777 155.50690413 87.09806459 153.3622912 85.85888672 151.21777344 C82.73675395 145.81329355 79.61858796 140.40652588 76.5 135 C75.25001878 132.8333225 74.00001879 130.66665583 72.75 128.5 C35.25 63.5 35.25 63.5 33.37353516 60.24731445 C32.12858718 58.08950197 30.8834711 55.93178647 29.63818359 53.77416992 C26.43447349 48.22283408 23.2340637 42.66963459 20.0390625 37.11328125 C18.73448223 34.84629246 17.42979644 32.57936438 16.125 30.3125 C15.50165771 29.22831787 14.87831543 28.14413574 14.23608398 27.02709961 C10.40445758 20.37977341 6.52333402 13.76685072 2.43603516 7.27270508 C0.77658161 4.58230482 0 3.23531071 0 0 Z " fill="#007AFE" transform="translate(326,175)"/>
<path d="M0 0 C8.0021948 0.3787093 15.06733201 2.29875902 22.625 4.875 C23.80070557 5.27356201 24.97641113 5.67212402 26.18774414 6.08276367 C61.08726624 18.22203349 91.2829663 37.63088267 118 63 C118.53415527 63.50547363 119.06831055 64.01094727 119.61865234 64.53173828 C127.91675419 72.44021157 135.19873258 80.77923409 142 90 C142.48855469 90.65484375 142.97710937 91.3096875 143.48046875 91.984375 C150.83609901 101.89273041 157.15372067 112.11714789 162.92578125 123.02050781 C163.99535493 124.99144041 165.13165323 126.91086711 166.28125 128.8359375 C168 132 168 132 168 135 C86.82 135 5.64 135 -78 135 C-76.52311947 131.30779867 -75.09146659 128.23950555 -73.12109375 124.84375 C-72.24723022 123.33276733 -72.24723022 123.33276733 -71.35571289 121.79125977 C-70.72270264 120.70514404 -70.08969238 119.61902832 -69.4375 118.5 C-68.76729129 117.3450899 -68.09729252 116.19005796 -67.42749023 115.03491211 C-65.29064021 111.35330802 -63.14598064 107.67628734 -61 104 C-60.64989868 103.39988098 -60.29979736 102.79976196 -59.93908691 102.18145752 C-51.36171644 87.48002578 -42.71757029 72.81893104 -34.03076172 58.18188477 C-22.56869797 38.85749541 -11.22286899 19.46428466 0 0 Z " fill="#017AFD" transform="translate(303,11)"/>
<path d="M0 0 C3.21693815 2.96418818 5.33784972 5.96277592 7.51171875 9.75 C7.83681931 10.31133133 8.16191986 10.87266266 8.49687195 11.45100403 C9.198256 12.66298433 9.89694668 13.87652654 10.59320068 15.09146118 C12.48185893 18.38542064 14.39213242 21.66681532 16.30078125 24.94921875 C16.69269653 25.62417892 17.08461182 26.2991391 17.48840332 26.99455261 C21.36348959 33.65444579 25.35740006 40.2376861 29.375 46.8125 C35.58038582 56.97409787 41.68919604 67.18904244 47.75 77.4375 C52.91933234 86.17686793 58.11676815 94.88994674 63.5 103.5 C68.88324357 112.11007201 74.08015391 120.82342076 79.25 129.5625 C85.32178395 139.82454248 91.42766446 150.06322132 97.625 160.25 C98.30876709 161.37446533 98.99253418 162.49893066 99.69702148 163.6574707 C102.96291476 169.02316907 106.23481284 174.38515071 109.51159668 179.74420166 C111.07178096 182.29712115 112.62953478 184.85151887 114.18695068 187.40612793 C115.27859894 189.19446336 116.3738399 190.98056164 117.46923828 192.76660156 C118.46866455 194.40580566 118.46866455 194.40580566 119.48828125 196.078125 C120.07134033 197.03106445 120.65439941 197.98400391 121.25512695 198.96582031 C123.3223368 202.56051515 125.14553579 206.29107158 127 210 C74.86 210 22.72 210 -31 210 C-49.92043755 148.50857795 -44.52234898 82.50158455 -15.54589844 24.91064453 C-4.93810376 4.93810376 -4.93810376 4.93810376 0 0 Z " fill="#007AFD" transform="translate(46,112)"/>
<path d="M0 0 C51.81 0 103.62 0 157 0 C160 8 160 8 159 12 C159 11.01 159 10.02 159 9 C158.34 9 157.68 9 157 9 C156.67 6.69 156.34 4.38 156 2 C106.83 2 57.66 2 7 2 C5.93033818 8.29879748 5.93033818 8.29879748 9 13 C8.67 13.99 8.34 14.98 8 16 C6.6583797 13.9007236 5.32663161 11.7962168 4 9.6875 C3.6184375 9.09259766 3.236875 8.49769531 2.84375 7.88476562 C0 3.33984375 0 3.33984375 0 0 Z " fill="#247CDC" transform="translate(326,175)"/>
<path d="M0 0 C1.76462683 3.08809695 2 4.23312136 2 8 C2.99 7.67 3.98 7.34 5 7 C6.14558809 10.43676427 5.99344886 13.0725106 5.83984375 16.6484375 C5.91509075 19.53071496 5.91509075 19.53071496 8 24 C58.49 24.33 108.98 24.66 161 25 C160.67 23.35 160.34 21.7 160 20 C162.2477975 22.05233685 163.0022242 23.00667261 164 26 C111.86 26 59.72 26 6 26 C-0.33766234 5.4025974 -0.33766234 5.4025974 0 0 Z " fill="#2981DF" transform="translate(9,296)"/>
<path d="M0 0 C0.66 0 1.32 0 2 0 C0.48472945 5.35000553 -1.98649034 9.76362445 -4.8125 14.5 C-5.23853516 15.23347656 -5.66457031 15.96695312 -6.10351562 16.72265625 C-8.73910555 21.18043164 -11.57553337 25.11442924 -15 29 C-18.9753055 25.50904207 -21.27725909 21.43925015 -23.8125 16.875 C-24.23208984 16.14667969 -24.65167969 15.41835938 -25.08398438 14.66796875 C-26.12352598 12.81494731 -27.07001348 10.91035606 -28 9 C-27.67 8.34 -27.34 7.68 -27 7 C-23.10157195 10.52116082 -23.10157195 10.52116082 -22.5625 13.0625 C-22.12373415 15.20621363 -22.12373415 15.20621363 -20 16.8125 C-15.80368655 18.47354074 -12.36253252 17.78886754 -8 17 C-8 16.01 -8 15.02 -8 14 C-7.34 14 -6.68 14 -6 14 C-6 12.35 -6 10.7 -6 9 C-5.0409375 8.6596875 -5.0409375 8.6596875 -4.0625 8.3125 C-1.74346259 7.16086307 -1.74346259 7.16086307 -1.3125 4.5 C-1.209375 3.675 -1.10625 2.85 -1 2 C-0.67 1.34 -0.34 0.68 0 0 Z " fill="#047AF9" transform="translate(465,361)"/>
<path d="M0 0 C0.66 0 1.32 0 2 0 C3.5078125 2.1171875 3.5078125 2.1171875 5.125 4.875 C5.66382813 5.77992188 6.20265625 6.68484375 6.7578125 7.6171875 C8 10 8 10 8 12 C7.34 12 6.68 12 6 12 C6 11.34 6 10.68 6 10 C5.34 10 4.68 10 4 10 C4.33 10.99 4.66 11.98 5 13 C2.625 14.5625 2.625 14.5625 0 16 C-2 15 -2 15 -3 14 C-5.05396726 14.40929986 -5.05396726 14.40929986 -7 15 C-7 15.99 -7 16.98 -7 18 C-7.66 18 -8.32 18 -9 18 C-7.65135873 13.50902459 -5.85935169 9.67388743 -3.5 5.625 C-2.8915625 4.56539063 -2.283125 3.50578125 -1.65625 2.4140625 C-1.1096875 1.61742187 -0.563125 0.82078125 0 0 Z " fill="#1179EB" transform="translate(350,278)"/>
<path d="M0 0 C0.33 0 0.66 0 1 0 C0.42920805 6.64804737 -0.81177057 12.72884591 -2.6875 19.125 C-2.94934082 20.03209717 -3.21118164 20.93919434 -3.48095703 21.8737793 C-5.82728086 29.80362715 -8.71366228 37.41345441 -12 45 C-12.33 45 -12.66 45 -13 45 C-13.05422947 43.5629191 -13.09289723 42.12524538 -13.125 40.6875 C-13.14820313 39.88699219 -13.17140625 39.08648437 -13.1953125 38.26171875 C-13 36 -13 36 -11 33 C-10.34 33 -9.68 33 -9 33 C-8.855625 32.030625 -8.71125 31.06125 -8.5625 30.0625 C-8 27 -8 27 -7 26 C-6.855625 24.906875 -6.71125 23.81375 -6.5625 22.6875 C-6 19 -6 19 -4.9375 17.0625 C-3.43706344 13.76153958 -3.88013704 10.59588883 -4 7 C-3.34 7 -2.68 7 -2 7 C-1.34 4.69 -0.68 2.38 0 0 Z " fill="#1C78E2" transform="translate(488,299)"/>
<path d="M0 0 C0.97791242 2.64036353 1.03638105 3.87266632 0.25 6.625 C-1 9 -1 9 -4 11 C-4.96741223 12.88100185 -4.96741223 12.88100185 -5.625 15 C-6.3386335 17.08718614 -7.01261518 19.02523037 -8 21 C-7.34 21.33 -6.68 21.66 -6 22 C-6.33 22.66 -6.66 23.32 -7 24 C-7.99 24 -8.98 24 -10 24 C-10.33 24.66 -10.66 25.32 -11 26 C-13.0625 26.625 -13.0625 26.625 -15 27 C-13.66252058 23.46238077 -12.09562161 20.23255793 -10.21484375 16.953125 C-9.68439453 16.02628906 -9.15394531 15.09945312 -8.60742188 14.14453125 C-8.05634766 13.18933594 -7.50527344 12.23414062 -6.9375 11.25 C-6.38255859 10.27933594 -5.82761719 9.30867188 -5.25585938 8.30859375 C-1.14043257 1.14043257 -1.14043257 1.14043257 0 0 Z " fill="#1777E3" transform="translate(260,85)"/>
<path d="M0 0 C0.66 0.33 1.32 0.66 2 1 C0.37860535 2.81584234 -1.24686736 4.6277162 -2.875 6.4375 C-3.33519531 6.95376953 -3.79539062 7.47003906 -4.26953125 8.00195312 C-7.7734375 11.88671875 -7.7734375 11.88671875 -10 13 C-10.33 13.99 -10.66 14.98 -11 16 C-11.99 16 -12.98 16 -14 16 C-14.639375 16.804375 -15.27875 17.60875 -15.9375 18.4375 C-18 21 -18 21 -20.25 21.8125 C-20.8275 21.874375 -21.405 21.93625 -22 22 C-18.46358102 14.19957344 -10.87667732 9.14393037 -4.35546875 3.91796875 C-1.99243296 2.06032914 -1.99243296 2.06032914 0 0 Z " fill="#177BE6" transform="translate(95,58)"/>
<path d="M0 0 C0.66 0 1.32 0 2 0 C2 0.66 2 1.32 2 2 C2.61875 2.04125 3.2375 2.0825 3.875 2.125 C4.57625 2.41375 5.2775 2.7025 6 3 C7.0625 5.625 7.0625 5.625 8 9 C9.21607911 12.05286527 10.5300994 15.06019879 12 18 C12.99 18 13.98 18 15 18 C15.144375 19.0725 15.28875 20.145 15.4375 21.25 C15.83749442 23.91662949 16.27591924 26.41399729 17 29 C14.21286997 25.65574675 11.89882576 22.30812777 9.765625 18.515625 C9.19199219 17.49855469 8.61835938 16.48148438 8.02734375 15.43359375 C7.44082031 14.38300781 6.85429687 13.33242187 6.25 12.25 C5.64800781 11.18394531 5.04601562 10.11789063 4.42578125 9.01953125 C0 1.14143991 0 1.14143991 0 0 Z " fill="#1576E6" transform="translate(349,216)"/>
<path d="M0 0 C0.45375 0.639375 0.9075 1.27875 1.375 1.9375 C2.83921726 4.09702406 2.83921726 4.09702406 5 5 C5 5.99 5 6.98 5 8 C2 9 2 9 0 9 C-1.66965451 9.31802943 -3.33678518 9.64984951 -5 10 C-4.34 11.65 -3.68 13.3 -3 15 C-4.98 15.66 -6.96 16.32 -9 17 C-7.68925635 12.53817564 -5.92933989 9.00381243 -3.375 5.125 C-2.74335937 4.15820312 -2.11171875 3.19140625 -1.4609375 2.1953125 C-0.73777344 1.10863281 -0.73777344 1.10863281 0 0 Z " fill="#0978F1" transform="translate(42,118)"/>
<path d="M0 0 C3.73718325 3.48661898 6.10190999 7.73141672 8.75 12.0625 C9.26949219 12.89072266 9.78898437 13.71894531 10.32421875 14.57226562 C10.81019531 15.36439453 11.29617187 16.15652344 11.796875 16.97265625 C12.24385742 17.69718994 12.69083984 18.42172363 13.15136719 19.16821289 C13.57144043 20.07494751 13.57144043 20.07494751 14 21 C13.67 21.66 13.34 22.32 13 23 C10.525 22.01 10.525 22.01 8 21 C8 20.01 8 19.02 8 18 C7.01 17.67 6.02 17.34 5 17 C5 14.36 5 11.72 5 9 C4.34 9 3.68 9 3 9 C3 8.01 3 7.02 3 6 C2.34 6 1.68 6 1 6 C0.67 4.02 0.34 2.04 0 0 Z " fill="#1977DE" transform="translate(60,135)"/>
<path d="M0 0 C1.32 0.66 2.64 1.32 4 2 C-17.4010063 7.76303063 -17.4010063 7.76303063 -28 8 C-28 7.34 -28 6.68 -28 6 C-27.28972656 5.93941406 -26.57945312 5.87882812 -25.84765625 5.81640625 C-24.46900391 5.69072266 -24.46900391 5.69072266 -23.0625 5.5625 C-22.14597656 5.48128906 -21.22945313 5.40007812 -20.28515625 5.31640625 C-18.03840268 5.23955024 -18.03840268 5.23955024 -17 4 C-15.329375 3.7834375 -15.329375 3.7834375 -13.625 3.5625 C-9.91489453 3.24699783 -9.91489453 3.24699783 -7 1 C-5.00039988 0.960008 -2.99952758 0.95653201 -1 1 C-0.67 0.67 -0.34 0.34 0 0 Z " fill="#1E7DE2" transform="translate(315,483)"/>
<path d="M0 0 C0.33 0.66 0.66 1.32 1 2 C-0.07983398 4.24658203 -0.07983398 4.24658203 -1.74609375 7.0078125 C-2.33583984 7.99394531 -2.92558594 8.98007813 -3.53320312 9.99609375 C-4.47583008 11.54490234 -4.47583008 11.54490234 -5.4375 13.125 C-6.06205078 14.16527344 -6.68660156 15.20554687 -7.33007812 16.27734375 C-8.87961329 18.85595953 -10.43649945 21.42983616 -12 24 C-12.33 22.68 -12.66 21.36 -13 20 C-12.34 20 -11.68 20 -11 20 C-10.855625 19.21625 -10.71125 18.4325 -10.5625 17.625 C-10 15 -10 15 -9 13 C-8.34 13 -7.68 13 -7 13 C-7.33 11.02 -7.66 9.04 -8 7 C-7.01 7.33 -6.02 7.66 -5 8 C-4.731875 7.05125 -4.46375 6.1025 -4.1875 5.125 C-3 2 -3 2 0 0 Z " fill="#1776E4" transform="translate(212,108)"/>
<path d="M0 0 C3.53811723 2.54018673 5.02429615 3.81841206 6 8 C6.66 8.2475 7.32 8.495 8 8.75 C10 10 10 10 10.484375 11.8984375 C10.7261606 13.92516972 10.8685891 15.96313109 11 18 C12.65 18 14.3 18 16 18 C14.68 19.32 13.36 20.64 12 22 C0 2.63106796 0 2.63106796 0 0 Z " fill="#207ADA" transform="translate(437,368)"/>
<path d="M0 0 C0.99 0 1.98 0 3 0 C1.3003494 4.73474097 -1.13659027 8.96167111 -3.625 13.3125 C-4.04523438 14.05306641 -4.46546875 14.79363281 -4.8984375 15.55664062 C-5.92948495 17.37269011 -6.96436046 19.18656533 -8 21 C-8.33 21 -8.66 21 -9 21 C-9 19.35 -9 17.7 -9 16 C-8.34 16 -7.68 16 -7 16 C-7.04125 15.0925 -7.0825 14.185 -7.125 13.25 C-7.00468444 10.1217954 -6.6085292 8.61385994 -5 6 C-3.68 6 -2.36 6 -1 6 C-0.67 4.02 -0.34 2.04 0 0 Z " fill="#1478E5" transform="translate(192,139)"/>
<path d="M0 0 C0.66 0.66 1.32 1.32 2 2 C1.93382478 5.73890011 -0.40492353 7.74427625 -2.94921875 10.26171875 C-3.46097656 10.75285156 -3.97273438 11.24398438 -4.5 11.75 C-5.01175781 12.25660156 -5.52351563 12.76320313 -6.05078125 13.28515625 C-9.84572945 17 -9.84572945 17 -11 17 C-11.375 14.25 -11.375 14.25 -11 11 C-8.33755541 8.82163625 -5.86988148 7.35265465 -2.6875 6.0625 C-0.70626328 5.07713392 -0.70626328 5.07713392 -0.25 2.375 C-0.1675 1.59125 -0.085 0.8075 0 0 Z " fill="#1D7BE8" transform="translate(428,411)"/>
<path d="M0 0 C1.90116558 1.28788636 3.31943137 2.69443137 4.9375 4.3125 C7.03739652 5.48824711 7.03739652 5.48824711 8.9375 6.3125 C8.9375 6.9725 8.9375 7.6325 8.9375 8.3125 C10.5875 8.3125 12.2375 8.3125 13.9375 8.3125 C13.6075 9.3025 13.2775 10.2925 12.9375 11.3125 C8.17198987 9.93644084 4.2126447 7.84471934 0.0625 5.1875 C-0.53046875 4.81496094 -1.1234375 4.44242187 -1.734375 4.05859375 C-3.1806343 3.14885 -4.62208046 2.23146202 -6.0625 1.3125 C-2.3203125 -0.7734375 -2.3203125 -0.7734375 0 0 Z " fill="#167BE9" transform="translate(126.0625,456.6875)"/>
<path d="M0 0 C3.78570414 1.26190138 4.21831571 2.54855815 6.1875 5.9375 C6.71730469 6.83339844 7.24710937 7.72929687 7.79296875 8.65234375 C9 11 9 11 9 13 C9.66 13 10.32 13 11 13 C11.4125 14.175625 11.825 15.35125 12.25 16.5625 C13.34645249 19.53030168 14.61035439 22.17072339 16.25 24.875 C16.8275 25.90625 17.405 26.9375 18 28 C17.67 28.66 17.34 29.32 17 30 C14.72606208 26.12681398 12.45640366 22.25113689 10.1875 18.375 C9.54490234 17.28058594 8.90230469 16.18617188 8.24023438 15.05859375 C7.61826172 13.99511719 6.99628906 12.93164062 6.35546875 11.8359375 C5.78465576 10.86188965 5.21384277 9.8878418 4.62573242 8.88427734 C2.9816292 5.96740762 1.47218855 3.0067745 0 0 Z " fill="#2379D8" transform="translate(366,246)"/>
<path d="M0 0 C0.33 0 0.66 0 1 0 C1 1.65 1 3.3 1 5 C0.34 5 -0.32 5 -1 5 C-0.91298828 6.10601562 -0.91298828 6.10601562 -0.82421875 7.234375 C-1.03118187 10.49059471 -1.82071964 11.7106012 -3.8125 14.25 C-4.33457031 14.93578125 -4.85664063 15.6215625 -5.39453125 16.328125 C-7 18 -7 18 -10 19 C-8.40376856 14.60616294 -6.21975667 10.71004193 -3.875 6.6875 C-3.50246094 6.04232422 -3.12992187 5.39714844 -2.74609375 4.73242188 C-1.83367787 3.15324055 -0.91724491 1.57638136 0 0 Z " fill="#1879DF" transform="translate(294,376)"/>
<path d="M0 0 C-0.12568359 0.90492188 -0.12568359 0.90492188 -0.25390625 1.828125 C-0.35574219 2.62734375 -0.45757812 3.4265625 -0.5625 4.25 C-0.66691406 5.03890625 -0.77132813 5.8278125 -0.87890625 6.640625 C-1.00027349 9.00532874 -0.69633257 10.7511037 0 13 C-3.29240875 10.20145256 -5.03562946 6.79326725 -7 3 C-7 2.01 -7 1.02 -7 0 C-4.3333581 -1.33332095 -2.83319697 -0.67102033 0 0 Z " fill="#0F78ED" transform="translate(391,275)"/>
<path d="M0 0 C-0.33 1.32 -0.66 2.64 -1 4 C-2.32 4 -3.64 4 -5 4 C-5 4.66 -5 5.32 -5 6 C-5.763125 6.2475 -6.52625 6.495 -7.3125 6.75 C-10.09745632 7.77143334 -10.09745632 7.77143334 -11.4375 10.0625 C-13 12 -13 12 -16.1875 12.75 C-17.5796875 12.87375 -17.5796875 12.87375 -19 13 C-15.53092419 9.338554 -12.04844095 6.48164242 -7.8125 3.6875 C-6.76707031 2.99011719 -5.72164062 2.29273438 -4.64453125 1.57421875 C-2 0 -2 0 0 0 Z " fill="#1B7BDF" transform="translate(121,41)"/>
<path d="M0 0 C1.32 0 2.64 0 4 0 C2.40376856 4.39383706 0.21975667 8.28995807 -2.125 12.3125 C-2.49753906 12.95767578 -2.87007812 13.60285156 -3.25390625 14.26757812 C-4.16632213 15.84675945 -5.08275509 17.42361864 -6 19 C-6.33 19 -6.66 19 -7 19 C-7 17.35 -7 15.7 -7 14 C-6.34 13.67 -5.68 13.34 -5 13 C-4.34227572 9.97065509 -4.34227572 9.97065509 -4 7 C-3.34 7 -2.68 7 -2 7 C-1.34 4.69 -0.68 2.38 0 0 Z " fill="#157AE6" transform="translate(252,35)"/>
<path d="M0 0 C-1.98 0.33 -3.96 0.66 -6 1 C-6 1.66 -6 2.32 -6 3 C-7.65 3 -9.3 3 -11 3 C-10.67 4.32 -10.34 5.64 -10 7 C-10.99 7.495 -10.99 7.495 -12 8 C-12 6.68 -12 5.36 -12 4 C-13.65 4.33 -15.3 4.66 -17 5 C-17 5.66 -17 6.32 -17 7 C-19.31 7 -21.62 7 -24 7 C-20.94772947 3.94772947 -17.16658769 3.15653346 -13.125 1.8125 C-12.30902344 1.52697266 -11.49304688 1.24144531 -10.65234375 0.94726562 C-9.46705078 0.54991211 -9.46705078 0.54991211 -8.2578125 0.14453125 C-7.5373877 -0.09934326 -6.81696289 -0.34321777 -6.07470703 -0.59448242 C-3.72175684 -1.05438478 -2.25623333 -0.74371194 0 0 Z " fill="#1F7BDE" transform="translate(185,14)"/>
<path d="M0 0 C1.32 0 2.64 0 4 0 C4.33 1.32 4.66 2.64 5 4 C5.66 4 6.32 4 7 4 C7 5.65 7 7.3 7 9 C7.66 9.33 8.32 9.66 9 10 C10.10546875 11.77734375 10.10546875 11.77734375 11.1875 13.9375 C11.55230469 14.64777344 11.91710938 15.35804688 12.29296875 16.08984375 C12.52628906 16.72019531 12.75960937 17.35054688 13 18 C12.67 18.66 12.34 19.32 12 20 C7.28357123 13.61175354 3.330042 7.21253337 0 0 Z " fill="#1B7ADF" transform="translate(35,368)"/>
<path d="M0 0 C4.75 0.875 4.75 0.875 7 2 C6.773125 2.886875 6.54625 3.77375 6.3125 4.6875 C5.94020359 8.63384198 6.90334443 9.76765599 9 13 C8.67 13.99 8.34 14.98 8 16 C6.6583797 13.9007236 5.32663161 11.7962168 4 9.6875 C3.6184375 9.09259766 3.236875 8.49769531 2.84375 7.88476562 C0 3.33984375 0 3.33984375 0 0 Z " fill="#1379E6" transform="translate(326,175)"/>
<path d="M0 0 C0.66 0 1.32 0 2 0 C0.53171057 5.17935061 -1.81491263 9.34373412 -4.625 13.875 C-5.04523438 14.56335938 -5.46546875 15.25171875 -5.8984375 15.9609375 C-6.92692472 17.64391658 -7.962721 19.32242532 -9 21 C-9.99 19.68 -10.98 18.36 -12 17 C-10.68 17 -9.36 17 -8 17 C-8 16.01 -8 15.02 -8 14 C-7.34 14 -6.68 14 -6 14 C-6 12.35 -6 10.7 -6 9 C-5.360625 8.773125 -4.72125 8.54625 -4.0625 8.3125 C-1.74346259 7.16086307 -1.74346259 7.16086307 -1.3125 4.5 C-1.209375 3.675 -1.10625 2.85 -1 2 C-0.67 1.34 -0.34 0.68 0 0 Z " fill="#207BDE" transform="translate(465,361)"/>
<path d="M0 0 C2.96655321 3.55854831 5.45858103 7.1982268 7.8125 11.1875 C8.43769531 12.23292969 9.06289063 13.27835937 9.70703125 14.35546875 C10.13371094 15.22816406 10.56039063 16.10085938 11 17 C10.67 17.66 10.34 18.32 10 19 C9.67 18.01 9.34 17.02 9 16 C8.34 16 7.68 16 7 16 C7 15.01 7 14.02 7 13 C6.401875 12.814375 5.80375 12.62875 5.1875 12.4375 C1.91102975 10.28439098 1.25248292 7.63220048 0 4 C0 2.68 0 1.36 0 0 Z " fill="#1C77DF" transform="translate(362,297)"/>
<path d="M0 0 C0 3 0 3 -2 6 C-2 8.87137415 -1.72886734 11.2303041 -1 14 C-0.34 14.33 0.32 14.66 1 15 C1 16.65 1 18.3 1 20 C-6 11.55172414 -6 11.55172414 -6 7.5 C-4.67784046 4.19460115 -2.62371273 2.35461399 0 0 Z " fill="#1E7BDD" transform="translate(72,80)"/>
<path d="M0 0 C6.68364774 4.26203624 12.87987207 8.96590729 19 14 C18.01 14.33 17.02 14.66 16 15 C16 14.34 16 13.68 16 13 C14.68 13 13.36 13 12 13 C11.67 12.01 11.34 11.02 11 10 C7.43082843 7.77768563 3.79039298 5.81938863 0 4 C0 2.68 0 1.36 0 0 Z " fill="#1E77DD" transform="translate(389,48)"/>
<path d="M0 0 C1.53271273 4.58798777 0.02911182 6.77944742 -2 11 C-2.99 11 -3.98 11 -5 11 C-5.0825 11.763125 -5.165 12.52625 -5.25 13.3125 C-6.14615794 16.52373261 -7.21611025 17.29374499 -10 19 C-8.40376856 14.60616294 -6.21975667 10.71004193 -3.875 6.6875 C-3.50246094 6.04232422 -3.12992187 5.39714844 -2.74609375 4.73242188 C-1.83367787 3.15324055 -0.91724491 1.57638136 0 0 Z " fill="#1978DA" transform="translate(283,395)"/>
<path d="M0 0 C0.33 0.99 0.66 1.98 1 3 C1.28875 3.61875 1.5775 4.2375 1.875 4.875 C2 7 2 7 -0.3125 9.75 C-3 12 -3 12 -5 12 C-5 12.66 -5 13.32 -5 14 C-5.66 14 -6.32 14 -7 14 C-5.23570801 9.02790438 -2.6060834 4.56561939 0 0 Z " fill="#0D78ED" transform="translate(310,348)"/>
<path d="M0 0 C0.99 0.33 1.98 0.66 3 1 C4.1875 4.5625 4.1875 4.5625 5 8 C5.66 8 6.32 8 7 8 C7.33 8.99 7.66 9.98 8 11 C8.680625 11.433125 9.36125 11.86625 10.0625 12.3125 C12 14 12 14 12.25 17.1875 C12.1675 18.115625 12.085 19.04375 12 20 C9.86187451 17.98405311 8.25292367 16.01104183 6.73828125 13.49609375 C6.34189453 12.83802734 5.94550781 12.17996094 5.53710938 11.50195312 C5.13298828 10.82068359 4.72886719 10.13941406 4.3125 9.4375 C3.68891602 8.40979492 3.68891602 8.40979492 3.05273438 7.36132812 C0 2.2533867 0 2.2533867 0 0 Z " fill="#1F7BDC" transform="translate(132,197)"/>
<path d="M0 0 C0.33 0 0.66 0 1 0 C0.73831534 6.00566301 0.1887234 9.44168336 -4 14 C-5.04451438 15.97711651 -6.05698138 17.97250996 -7 20 C-7.33 19.34 -7.66 18.68 -8 18 C-6.94838173 15.27401745 -5.83965896 12.65185086 -4.625 10 C-4.295 9.26265625 -3.965 8.5253125 -3.625 7.765625 C-2.45432498 5.15777983 -1.27852368 2.55704736 0 0 Z " fill="#1C7AE2" transform="translate(28,143)"/>
<path d="M0 0 C1.76462683 3.08809695 2 4.23312136 2 8 C2.99 7.67 3.98 7.34 5 7 C6.03159626 10.09478879 5.97482862 11.52631393 5.5625 14.6875 C5.46066406 15.49574219 5.35882812 16.30398438 5.25390625 17.13671875 C5.12822266 18.05904297 5.12822266 18.05904297 5 19 C2.48768622 16.48768622 2.21338287 14.62148234 1.375 11.1875 C1.11460938 10.14980469 0.85421875 9.11210937 0.5859375 8.04296875 C0.05085782 5.26412163 -0.11460481 2.81823638 0 0 Z " fill="#1A7BEA" transform="translate(9,296)"/>
<path d="M0 0 C0.33 0 0.66 0 1 0 C1.13277344 1.14339844 1.26554688 2.28679687 1.40234375 3.46484375 C1.5805031 4.9557562 1.75890082 6.44664018 1.9375 7.9375 C2.02451172 8.69224609 2.11152344 9.44699219 2.20117188 10.22460938 C2.34324099 13.92187458 2.34324099 13.92187458 4 17 C4.07258946 19.18639453 4.08373783 21.37500389 4.0625 23.5625 C4.05347656 24.76003906 4.04445313 25.95757812 4.03515625 27.19140625 C4.02355469 28.11824219 4.01195312 29.04507812 4 30 C3.67 30 3.34 30 3 30 C2.48722171 26.87696198 1.99223175 23.75133678 1.5 20.625 C1.35691406 19.75488281 1.21382813 18.88476562 1.06640625 17.98828125 C0.12624029 11.94435724 -0.17771303 6.11299899 0 0 Z " fill="#247FDC" transform="translate(5,266)"/>
<path d="M0 0 C1.2421875 1.546875 1.2421875 1.546875 2 4 C0.82035284 6.62012083 -0.36110729 8.83953006 -1.875 11.25 C-2.26558594 11.8996875 -2.65617188 12.549375 -3.05859375 13.21875 C-4.02477715 14.82120052 -5.01056172 16.41180293 -6 18 C-6.33 16.68 -6.66 15.36 -7 14 C-6.34 14 -5.68 14 -5 14 C-5.268125 13.443125 -5.53625 12.88625 -5.8125 12.3125 C-5.9053125 11.1678125 -5.9053125 11.1678125 -6 10 C-4.35511706 8.31183067 -2.68662458 6.64646685 -1 5 C-0.12761142 2.32209104 -0.12761142 2.32209104 0 0 Z " fill="#1578E5" transform="translate(241,405)"/>
<path d="M0 0 C-0.33 0.66 -0.66 1.32 -1 2 C-0.01 2 0.98 2 2 2 C2 1.01 2 0.02 2 -1 C2.66 -1 3.32 -1 4 -1 C4.33 -0.01 4.66 0.98 5 2 C6.49985609 3.66710346 6.49985609 3.66710346 8 5 C2.49191603 4.40984815 -2.64878069 3.43336231 -8 2 C-8 1.67 -8 1.34 -8 1 C-2.25 -1.125 -2.25 -1.125 0 0 Z " fill="#147CEA" transform="translate(195,485)"/>
<path d="M0 0 C3.50297874 4.02193856 9 10.39433144 9 16 C8.34 16 7.68 16 7 16 C7 15.34 7 14.68 7 14 C5.35 13.67 3.7 13.34 2 13 C2.185625 12.443125 2.37125 11.88625 2.5625 11.3125 C3.07551165 8.600867 2.6640724 6.65628961 2 4 C1.34 4 0.68 4 0 4 C0 2.68 0 1.36 0 0 Z " fill="#1974E3" transform="translate(399,361)"/>
<path d="M0 0 C5.50719921 3.90510489 10.35827355 8.09717644 15 13 C14.01 13.495 14.01 13.495 13 14 C10.33032487 13.08229918 9.2462699 12.47805333 7.9375 9.9375 C7.628125 9.298125 7.31875 8.65875 7 8 C6.01 7.67 5.02 7.34 4 7 C4 6.01 4 5.02 4 4 C3.01 4 2.02 4 1 4 C0.67 2.68 0.34 1.36 0 0 Z " fill="#1D7BDD" transform="translate(408,63)"/>
<path d="M0 0 C0.99 0.33 1.98 0.66 3 1 C3 1.66 3 2.32 3 3 C3.66 3 4.32 3 5 3 C5.37125 4.5159375 5.37125 4.5159375 5.75 6.0625 C6.5500811 8.93578396 7.64082728 11.26503905 9.1875 13.8125 C10.0846875 15.3903125 10.0846875 15.3903125 11 17 C10.67 17.66 10.34 18.32 10 19 C8.32626249 16.21251481 6.66223733 13.41935573 5 10.625 C4.28457031 9.43390625 4.28457031 9.43390625 3.5546875 8.21875 C3.10351562 7.45820313 2.65234375 6.69765625 2.1875 5.9140625 C1.76855469 5.2123291 1.34960938 4.5105957 0.91796875 3.78759766 C0 2 0 2 0 0 Z " fill="#297BD3" transform="translate(407,316)"/>
<path d="M0 0 C0.66666667 2.66666667 1.33333333 5.33333333 2 8 C-0.67478244 9.6627026 -2.9995144 10.99983813 -6 12 C-4.43358249 7.69235185 -2.31663844 3.93828536 0 0 Z " fill="#1478E5" transform="translate(301,15)"/>
<path d="M0 0 C0.33 0 0.66 0 1 0 C1.31293706 8.13636364 1.31293706 8.13636364 -1 11 C-3.625 11.75 -3.625 11.75 -6 12 C-4.43358249 7.69235185 -2.31663844 3.93828536 0 0 Z " fill="#1579E8" transform="translate(260,435)"/>
<path d="M0 0 C7 8.44827586 7 8.44827586 7 12 C4 11 4 11 2.5 8.4375 C2.005 7.633125 1.51 6.82875 1 6 C0.01 6 -0.98 6 -2 6 C-1.34 4.02 -0.68 2.04 0 0 Z " fill="#1678E3" transform="translate(92,188)"/>
<path d="M0 0 C2.97 0.495 2.97 0.495 6 1 C5.67 1.99 5.34 2.98 5 4 C4.01 4 3.02 4 2 4 C1.67 4.66 1.34 5.32 1 6 C-1.0625 6.625 -1.0625 6.625 -3 7 C-1.125 2.25 -1.125 2.25 0 0 Z " fill="#0E7BED" transform="translate(248,105)"/>
<path d="M0 0 C1.1875 1.6875 1.1875 1.6875 2 4 C0.75 6.75 0.75 6.75 -1 9 C-1.66 9 -2.32 9 -3 9 C-3 9.99 -3 10.98 -3 12 C-3.99 12 -4.98 12 -6 12 C-4.43358249 7.69235185 -2.31663844 3.93828536 0 0 Z " fill="#1578E5" transform="translate(326,320)"/>
<path d="M0 0 C0 3.93974955 -1.47789475 5.82936093 -3.5 9.1875 C-4.47453125 10.81751953 -4.47453125 10.81751953 -5.46875 12.48046875 C-6.22671875 13.72763672 -6.22671875 13.72763672 -7 15 C-8.43088528 12.13822943 -7.59991697 10.06624227 -7 7 C-6.01 6.67 -5.02 6.34 -4 6 C-3.65657551 4.66923011 -3.32380126 3.33568021 -3 2 C-2.01 1.34 -1.02 0.68 0 0 Z " fill="#2179DE" transform="translate(157,202)"/>
<path d="M0 0 C0.66 0 1.32 0 2 0 C2.66 1.32 3.32 2.64 4 4 C4.99 4 5.98 4 7 4 C7.144375 5.0725 7.28875 6.145 7.4375 7.25 C7.83749442 9.91662949 8.27591924 12.41399729 9 15 C4.95808535 10.50898372 2.56325559 5.41015011 0 0 Z " fill="#1E77DC" transform="translate(357,230)"/>
<path d="M0 0 C7 8.20689655 7 8.20689655 7 13 C6.34 13 5.68 13 5 13 C1 7.58823529 1 7.58823529 1 5 C0.34 5 -0.32 5 -1 5 C-0.67 3.35 -0.34 1.7 0 0 Z " fill="#1878E1" transform="translate(460,125)"/>
<path d="M0 0 C0.66 0.33 1.32 0.66 2 1 C2 1.66 2 2.32 2 3 C1.34 3 0.68 3 0 3 C0.226875 3.5775 0.45375 4.155 0.6875 4.75 C1 7 1 7 -0.25 9.25 C-0.8275 9.8275 -1.405 10.405 -2 11 C-2.99 11 -3.98 11 -5 11 C-3.77472971 6.94718288 -2.30119506 3.55639236 0 0 Z " fill="#1779E3" transform="translate(319,332)"/>
<path d="M0 0 C1.8984375 0.30078125 1.8984375 0.30078125 4 1 C5.21049243 3.37442747 6.14306099 5.50524265 7 8 C7.391875 9.134375 7.78375 10.26875 8.1875 11.4375 C8.455625 12.283125 8.72375 13.12875 9 14 C4.4434473 10.28725335 2.42599607 5.20992598 0 0 Z " fill="#1D77DD" transform="translate(73,100)"/>
<path d="M0 0 C7 8.44827586 7 8.44827586 7 12 C6.01 11.67 5.02 11.34 4 11 C4 10.01 4 9.02 4 8 C3.01 8 2.02 8 1 8 C0.67 5.36 0.34 2.72 0 0 Z " fill="#1977DF" transform="translate(139,266)"/>
<path d="M0 0 C2.66666667 1.33333333 5.33333333 2.66666667 8 4 C8 4.66 8 5.32 8 6 C7.34 6 6.68 6 6 6 C5.67 7.32 5.34 8.64 5 10 C4.16121545 8.71186658 3.32913217 7.41936744 2.5 6.125 C2.0359375 5.40570313 1.571875 4.68640625 1.09375 3.9453125 C0 2 0 2 0 0 Z " fill="#1476E4" transform="translate(119,176)"/>
<path d="M0 0 C0.33 0.66 0.66 1.32 1 2 C-0.64379791 6.67184669 -2.18479582 9.71103088 -6 13 C-6 9.32965255 -4.9247108 7.9000569 -3 4.8125 C-2.443125 3.91144531 -1.88625 3.01039062 -1.3125 2.08203125 C-0.6628125 1.05142578 -0.6628125 1.05142578 0 0 Z " fill="#1C79DE" transform="translate(243,114)"/>
<path d="M0 0 C0 3.21534057 -0.26476072 4.35582586 -2 7 C-4.625 8.75 -4.625 8.75 -7 10 C-7 7 -7 7 -5.46875 5.17578125 C-4.8190625 4.56089844 -4.169375 3.94601563 -3.5 3.3125 C-2.8503125 2.68988281 -2.200625 2.06726563 -1.53125 1.42578125 C-0.77328125 0.72001953 -0.77328125 0.72001953 0 0 Z " fill="#1B87E9" transform="translate(81,70)"/>
<path d="M0 0 C4.83628305 0.99043705 9.47618873 1.95698846 14 4 C11.24921116 4.91692961 9.64051087 5.10886083 6.8125 5.0625 C4.9253125 5.0315625 4.9253125 5.0315625 3 5 C3 4.34 3 3.68 3 3 C2.01 2.67 1.02 2.34 0 2 C0 1.34 0 0.68 0 0 Z " fill="#1A77DB" transform="translate(320,15)"/>
<path d="M0 0 C0.33 0 0.66 0 1 0 C1 2.31 1 4.62 1 7 C0.401875 7.268125 -0.19625 7.53625 -0.8125 7.8125 C-2.97224808 8.98493467 -4.35790256 10.19369282 -6 12 C-4.43358249 7.69235185 -2.31663844 3.93828536 0 0 Z " fill="#1874E1" transform="translate(244,463)"/>
<path d="M0 0 C3 1 3 1 5 3 C5 4.32 5 5.64 5 7 C5.99 7.33 6.98 7.66 8 8 C7.34 9.32 6.68 10.64 6 12 C4.99466333 10.37829621 3.99588093 8.75252763 3 7.125 C2.443125 6.22007812 1.88625 5.31515625 1.3125 4.3828125 C0 2 0 2 0 0 Z " fill="#1879E0" transform="translate(112,164)"/>
<path d="M0 0 C0.33 1.32 0.66 2.64 1 4 C0.34 4 -0.32 4 -1 4 C-0.34 5.65 0.32 7.3 1 9 C-0.98 9.66 -2.96 10.32 -5 11 C-3.77472971 6.94718288 -2.30119506 3.55639236 0 0 Z " fill="#1679E4" transform="translate(38,124)"/>
<path d="M0 0 C2 0 2 0 3.5625 1.25 C5 3 5 3 5.4375 5.0625 C5.82450832 7.21173571 5.82450832 7.21173571 8.0625 8.25 C8.701875 8.4975 9.34125 8.745 10 9 C9.01 9.495 9.01 9.495 8 10 C7.67 10.99 7.34 11.98 7 13 C5.83072457 11.02237345 4.66464427 9.04285742 3.5 7.0625 C2.8503125 5.96035156 2.200625 4.85820313 1.53125 3.72265625 C0 1 0 1 0 0 Z " fill="#1E7BDF" transform="translate(82,115)"/>
<path d="M0 0 C0.66 0 1.32 0 2 0 C7.27272727 9.09090909 7.27272727 9.09090909 9 13 C8.67 13.66 8.34 14.32 8 15 C6.66121428 12.8782637 5.32884524 10.75294812 4 8.625 C3.6184375 8.02171875 3.236875 7.4184375 2.84375 6.796875 C0 2.2265625 0 2.2265625 0 0 Z " fill="#247BD7" transform="translate(103,149)"/>
<path d="M0 0 C4.17858365 3.71429658 7.17846829 7.64185802 9 13 C8.67 13.66 8.34 14.32 8 15 C6.66121428 12.8782637 5.32884524 10.75294812 4 8.625 C3.6184375 8.02171875 3.236875 7.4184375 2.84375 6.796875 C0 2.2265625 0 2.2265625 0 0 Z " fill="#267AD9" transform="translate(94,134)"/>
<path d="M0 0 C3.80635497 3.20760251 7.54563567 6.40746109 11 10 C10.67 10.66 10.34 11.32 10 12 C8.50260417 10.73046875 7.00520833 9.4609375 5.5078125 8.19140625 C3.99405921 6.9121848 3.99405921 6.9121848 2 6 C1.27306096 4.02111039 0.60183749 2.02045442 0 0 Z " fill="#287DDA" transform="translate(423,77)"/>
<path d="M0 0 C0.33 0 0.66 0 1 0 C1 2.64 1 5.28 1 8 C-0.65 8.33 -2.3 8.66 -4 9 C-2.80100302 5.9168649 -1.52299523 2.93720508 0 0 Z " fill="#1379E3" transform="translate(237,475)"/>
<path d="M0 0 C2.74277578 3.19990508 4.6302836 6.00499382 6 10 C5.01 9.67 4.02 9.34 3 9 C3 8.01 3 7.02 3 6 C1.68 6.33 0.36 6.66 -1 7 C-1.33 5.68 -1.66 4.36 -2 3 C-1.34 3 -0.68 3 0 3 C0 2.01 0 1.02 0 0 Z " fill="#1576E1" transform="translate(118,231)"/>
<path d="M0 0 C1.6415049 3.2830098 0.51888624 6.42545033 0 10 C-1.65 10 -3.3 10 -5 10 C-3.66511872 6.40608886 -2.03977277 3.24509304 0 0 Z " fill="#1978E2" transform="translate(270,68)"/>
<path d="M0 0 C3.96 0 7.92 0 12 0 C12.66 1.32 13.32 2.64 14 4 C9.13103697 3.40380045 4.67209049 2.43023178 0 1 C0 0.67 0 0.34 0 0 Z " fill="#1C7FEA" transform="translate(173,482)"/>
<path d="M0 0 C1.134375 0.020625 2.26875 0.04125 3.4375 0.0625 C1.2619694 2.2380306 -0.12223892 2.78129553 -3 3.75 C-4.17369141 4.15798828 -4.17369141 4.15798828 -5.37109375 4.57421875 C-7.5625 5.0625 -7.5625 5.0625 -10.5625 4.0625 C-9.593125 3.588125 -8.62375 3.11375 -7.625 2.625 C-2.56831395 0.04505814 -2.56831395 0.04505814 0 0 Z " fill="#237DDF" transform="translate(335.5625,476.9375)"/>
<path d="M0 0 C2.375 0.6875 2.375 0.6875 5 2 C6.3125 4.625 6.3125 4.625 7 7 C5.02 6.34 3.04 5.68 1 5 C1 4.01 1 3.02 1 2 C0.34 1.67 -0.32 1.34 -1 1 C-0.67 0.67 -0.34 0.34 0 0 Z " fill="#0D79EC" transform="translate(67,151)"/>
<path d="M0 0 C1.60495567 0.11442461 3.20898119 0.24194694 4.8125 0.375 C5.70582031 0.44460938 6.59914063 0.51421875 7.51953125 0.5859375 C10 1 10 1 13 3 C11.86111328 2.98259766 11.86111328 2.98259766 10.69921875 2.96484375 C9.70535156 2.95582031 8.71148437 2.94679688 7.6875 2.9375 C6.70136719 2.92589844 5.71523438 2.91429687 4.69921875 2.90234375 C1.90036151 2.87670138 1.90036151 2.87670138 -1 4 C-0.67 2.68 -0.34 1.36 0 0 Z " fill="#2877D5" transform="translate(303,11)"/>
<path d="M0 0 C0.66 0 1.32 0 2 0 C0.66511872 3.59391114 -0.96022723 6.75490696 -3 10 C-3.66 8.68 -4.32 7.36 -5 6 C-4.01 5.67 -3.02 5.34 -2 5 C-2 4.01 -2 3.02 -2 2 C-1.34 2 -0.68 2 0 2 C0 1.34 0 0.68 0 0 Z " fill="#1A77DF" transform="translate(255,383)"/>
<path d="M0 0 C0.66 0 1.32 0 2 0 C2 0.66 2 1.32 2 2 C2.66 2.33 3.32 2.66 4 3 C2.68 5.31 1.36 7.62 0 10 C-0.33 10 -0.66 10 -1 10 C-1.042721 8.33388095 -1.04063832 6.66617115 -1 5 C-0.67 4.67 -0.34 4.34 0 4 C0 2.68 0 1.36 0 0 Z " fill="#1479E8" transform="translate(268,355)"/>
<path d="M0 0 C0.99 0.33 1.98 0.66 3 1 C3.33 1.99 3.66 2.98 4 4 C4.66 4.33 5.32 4.66 6 5 C6.40729228 7.32156597 6.74438677 9.6568787 7 12 C0 3.55172414 0 3.55172414 0 0 Z " fill="#2178DA" transform="translate(423,344)"/>
<path d="M0 0 C0.66 0 1.32 0 2 0 C0.66654496 3.59007126 -0.8943231 6.79570907 -3 10 C-3.33 10 -3.66 10 -4 10 C-4.20086443 6.28400809 -4.1519437 5.22791555 -2 2 C-1.34 2.33 -0.68 2.66 0 3 C0 2.01 0 1.02 0 0 Z " fill="#1E7AE0" transform="translate(237,64)"/>
<path d="M0 0 C0.66 0 1.32 0 2 0 C0.74194623 4.50802601 -0.90407165 7.4912812 -4 11 C-4 9.02 -4 7.04 -4 5 C-2.68 4.34 -1.36 3.68 0 3 C0 2.01 0 1.02 0 0 Z " fill="#1A79DE" transform="translate(265,365)"/>
<path d="M0 0 C1.32 0 2.64 0 4 0 C4 1.98 4 3.96 4 6 C4.66 6 5.32 6 6 6 C5.67 7.32 5.34 8.64 5 10 C3.35 6.7 1.7 3.4 0 0 Z " fill="#1779E0" transform="translate(401,306)"/>
<path d="M0 0 C2.72426311 2.35277269 3.8141763 4.62496331 5 8 C1.125 7.125 1.125 7.125 0 6 C-0.04080783 4.00041636 -0.04254356 1.99954746 0 0 Z " fill="#1478E4" transform="translate(155,293)"/>
<path d="M0 0 C2.72426311 2.35277269 3.8141763 4.62496331 5 8 C4.34 8 3.68 8 3 8 C3 8.66 3 9.32 3 10 C2.34 10 1.68 10 1 10 C1.33 8.02 1.66 6.04 2 4 C1.34 4 0.68 4 0 4 C0 2.68 0 1.36 0 0 Z " fill="#1677E2" transform="translate(75,160)"/>
<path d="M0 0 C1.65 1.65 3.3 3.3 5 5 C4.67 5.66 4.34 6.32 4 7 C1.03 6.505 1.03 6.505 -2 6 C-2 5.01 -2 4.02 -2 3 C-1.34 3 -0.68 3 0 3 C0 2.01 0 1.02 0 0 Z " fill="#157AE5" transform="translate(446,104)"/>
<path d="M0 0 C2.96404505 2.80804268 5.44499019 5.18315774 7 9 C5.02 8.34 3.04 7.68 1 7 C0.67 4.69 0.34 2.38 0 0 Z " fill="#1A7AE1" transform="translate(439,95)"/>
<path d="M0 0 C0.33 1.32 0.66 2.64 1 4 C0.34 4 -0.32 4 -1 4 C-1 5.32 -1 6.64 -1 8 C-2.98 8.99 -2.98 8.99 -5 10 C-3.66511872 6.40608886 -2.03977277 3.24509304 0 0 Z " fill="#2077DD" transform="translate(332,310)"/>
<path d="M0 0 C0.66 1.32 1.32 2.64 2 4 C1.01 4.99 0.02 5.98 -1 7 C-1.66 5.35 -2.32 3.7 -3 2 C-2.01 1.34 -1.02 0.68 0 0 Z " fill="#217BDE" transform="translate(147,215)"/>
<path d="M0 0 C0.33 0.66 0.66 1.32 1 2 C0.00390625 4.1640625 0.00390625 4.1640625 -1.4375 6.625 C-1.91058594 7.44226563 -2.38367188 8.25953125 -2.87109375 9.1015625 C-3.24363281 9.72804688 -3.61617187 10.35453125 -4 11 C-5.27115705 7.18652885 -4.54905091 5.64026964 -3 2 C-2.01 1.34 -1.02 0.68 0 0 Z " fill="#2077DA" transform="translate(212,108)"/>
<path d="M0 0 C0.33 0.66 0.66 1.32 1 2 C0.22265625 3.7265625 0.22265625 3.7265625 -0.9375 5.625 C-1.618125 6.73875 -2.29875 7.8525 -3 9 C-3.97608217 6.07175348 -4.08226668 4.04386724 -4 1 C-2.68 0.67 -1.36 0.34 0 0 Z " fill="#1979E3" transform="translate(269,11)"/>
<path d="M0 0 C2.31 0.33 4.62 0.66 7 1 C7.33 2.65 7.66 4.3 8 6 C4.63408134 4.55746343 2.48952921 2.66735273 0 0 Z " fill="#1A7BE4" transform="translate(100,443)"/>
<path d="M0 0 C2.74277578 3.19990508 4.6302836 6.00499382 6 10 C4.68 9.34 3.36 8.68 2 8 C2 6.68 2 5.36 2 4 C1.34 4 0.68 4 0 4 C0 2.68 0 1.36 0 0 Z " fill="#2176D6" transform="translate(133,256)"/>
<path d="M0 0 C2.475 0.495 2.475 0.495 5 1 C4.01 1.495 4.01 1.495 3 2 C3.33 3.98 3.66 5.96 4 8 C0 3.375 0 3.375 0 0 Z " fill="#207CD8" transform="translate(326,175)"/>
<path d="M0 0 C0 0.66 0 1.32 0 2 C-3.41831915 4.5393228 -5.75776898 5.3636198 -10 5 C-3.63636364 0 -3.63636364 0 0 0 Z " fill="#207ADC" transform="translate(153,24)"/>
<path d="M0 0 C1.32 0.33 2.64 0.66 4 1 C1.36 2.98 -1.28 4.96 -4 7 C-2 3 -2 3 0 0 Z " fill="#2280DC" transform="translate(413,428)"/>
<path d="M0 0 C0.33 0 0.66 0 1 0 C1 1.65 1 3.3 1 5 C0.01 5.33 -0.98 5.66 -2 6 C-2 6.99 -2 7.98 -2 9 C-2.66 9 -3.32 9 -4 9 C-2.94124926 5.59687262 -1.99097846 2.98646769 0 0 Z " fill="#1C79D7" transform="translate(299,367)"/>
<path d="M0 0 C1 3 1 3 1 6 C-0.375 7.6875 -0.375 7.6875 -2 9 C-2.66 9 -3.32 9 -4 9 C-2.94124926 5.59687262 -1.99097846 2.98646769 0 0 Z " fill="#1B78E2" transform="translate(310,348)"/>
<path d="M0 0 C4.42857143 5.14285714 4.42857143 5.14285714 5 9 C2 8 2 8 0.8125 6.1875 C0 4 0 4 0 0 Z " fill="#1F7BD5" transform="translate(384,335)"/>
<path d="M0 0 C0.99 0.33 1.98 0.66 3 1 C3 1.66 3 2.32 3 3 C3.66 3 4.32 3 5 3 C5 4.32 5 5.64 5 7 C4.34 7 3.68 7 3 7 C0 2.61538462 0 2.61538462 0 0 Z " fill="#1A7ADE" transform="translate(407,316)"/>
<path d="M0 0 C2.72426311 2.35277269 3.8141763 4.62496331 5 8 C2.525 7.01 2.525 7.01 0 6 C0 4.02 0 2.04 0 0 Z " fill="#1878DF" transform="translate(99,200)"/>
<path d="M0 0 C0.99 0 1.98 0 3 0 C1.7508258 3.45925163 0.32472205 6.14693203 -2 9 C-2 7.35 -2 5.7 -2 4 C-1.34 4 -0.68 4 0 4 C0 2.68 0 1.36 0 0 Z " fill="#1E78DC" transform="translate(185,151)"/>
<path d="M0 0 C1.10844919 3.32534757 0.84454356 5.62182575 0 9 C-0.99 9 -1.98 9 -3 9 C-2.69181644 7.68647977 -2.37832335 6.37420428 -2.0625 5.0625 C-1.88847656 4.33160156 -1.71445313 3.60070312 -1.53515625 2.84765625 C-1 1 -1 1 0 0 Z " fill="#1478E6" transform="translate(230,136)"/>
<path d="M0 0 C0.99 0.33 1.98 0.66 3 1 C2.19185349 2.33597652 1.37836819 3.668725 0.5625 5 C0.11003906 5.7425 -0.34242188 6.485 -0.80859375 7.25 C-1.20175781 7.8275 -1.59492188 8.405 -2 9 C-2.33 9 -2.66 9 -3 9 C-3 7.35 -3 5.7 -3 4 C-2.34 3.67 -1.68 3.34 -1 3 C-0.67 2.01 -0.34 1.02 0 0 Z " fill="#1F76D9" transform="translate(248,45)"/>
<path d="M0 0 C2.31 0 4.62 0 7 0 C6.67 1.65 6.34 3.3 6 5 C5.67 4.01 5.34 3.02 5 2 C3.35 2 1.7 2 0 2 C0 1.34 0 0.68 0 0 Z " fill="#2D7ED2" transform="translate(266,5)"/>
<path d="M0 0 C1.68762851 1.6454378 3.3540349 3.31288577 5 5 C5 5.33 5 5.66 5 6 C2.36 5.67 -0.28 5.34 -3 5 C-2.01 4.67 -1.02 4.34 0 4 C0 2.68 0 1.36 0 0 Z " fill="#3B88D6" transform="translate(198,484)"/>
<path d="M0 0 C1.65 0.33 3.3 0.66 5 1 C2.82575883 3.50037734 1.26954202 4.43628586 -2 5 C-1.34 3.35 -0.68 1.7 0 0 Z " fill="#1C7ADF" transform="translate(370,458)"/>
<path d="M0 0 C-1.07401108 2.91517292 -1.77810176 4.77810176 -4 7 C-4.33 5.02 -4.66 3.04 -5 1 C-3 0 -3 0 0 0 Z " fill="#177AE4" transform="translate(233,425)"/>
<path d="M0 0 C2.72426311 2.35277269 3.8141763 4.62496331 5 8 C3.35 7.67 1.7 7.34 0 7 C0 4.69 0 2.38 0 0 Z " fill="#1C7ADC" transform="translate(416,391)"/>
<path d="M0 0 C0.99 0.33 1.98 0.66 3 1 C2.34 2.65 1.68 4.3 1 6 C0.67 5.34 0.34 4.68 0 4 C-0.66 4 -1.32 4 -2 4 C-1.34 2.68 -0.68 1.36 0 0 Z " fill="#1079EE" transform="translate(453,379)"/>
<path d="M0 0 C0.99 0.495 0.99 0.495 2 1 C2 1.66 2 2.32 2 3 C2.99 3 3.98 3 5 3 C5 4.98 5 6.96 5 9 C0.57142857 3.85714286 0.57142857 3.85714286 0 0 Z " fill="#1F77DB" transform="translate(418,335)"/>
</svg>
