<?xml version="1.0" encoding="UTF-8"?>
<svg version="1.1" xmlns="http://www.w3.org/2000/svg" width="500" height="500">
<path d="M0 0 C165 0 330 0 500 0 C500 165 500 330 500 500 C335 500 170 500 0 500 C0 335 0 170 0 0 Z " fill="#FEFEFF" transform="translate(0,0)"/>
<path d="M0 0 C2.21678761 0.01510007 4.43358536 0.0287789 6.65039062 0.04101562 C11.99632135 0.0735395 17.34186046 0.12330167 22.6875 0.1875 C21.44198401 3.44739102 20.06065322 6.47040024 18.32421875 9.49609375 C17.85669189 10.31335937 17.38916504 11.130625 16.9074707 11.97265625 C16.40175537 12.84792969 15.89604004 13.72320312 15.375 14.625 C14.84156982 15.553125 14.30813965 16.48125 13.75854492 17.4375 C8.9770597 25.73443422 4.10696008 33.97817368 -0.77734375 42.21484375 C-4.72779036 48.88031236 -8.64623925 55.56441915 -12.5625 62.25 C-13.28311803 63.47990126 -14.00373979 64.70980034 -14.72436523 65.93969727 C-16.9208077 69.68873204 -19.11670316 73.43808706 -21.3125 77.1875 C-24.22866047 82.16696331 -27.1451368 87.14624122 -30.0625 92.125 C-30.41920776 92.73376984 -30.77591553 93.34253967 -31.14343262 93.96975708 C-36.19647183 102.59210451 -41.2697476 111.2022601 -46.36035156 119.80249023 C-50.86540587 127.41854257 -55.3407425 135.05187514 -59.8125 142.6875 C-65.30176265 152.06053742 -70.80715304 161.42368132 -76.34179688 170.77001953 C-79.48112154 176.07571337 -82.6054987 181.3899187 -85.71875 186.7109375 C-86.09914429 187.36088684 -86.47953857 188.01083618 -86.87145996 188.68048096 C-88.74598517 191.88371199 -90.619161 195.08772024 -92.49023438 198.29296875 C-96.0103742 204.31542348 -99.57184967 210.29889811 -103.3125 216.1875 C-106.32377633 213.54343825 -108.17384585 210.30332625 -110.1640625 206.87890625 C-110.53515137 206.24925461 -110.90624023 205.61960297 -111.28857422 204.97087097 C-112.08957712 203.6109765 -112.88860009 202.24991427 -113.68585205 200.88781738 C-115.82247158 197.23846665 -117.9746192 193.59828416 -120.125 189.95703125 C-120.56220367 189.21589081 -120.99940735 188.47475037 -121.44985962 187.71115112 C-125.55834962 180.75344737 -129.73549724 173.83902802 -133.9375 166.9375 C-134.63835251 165.78556689 -135.33919884 164.63363003 -136.04003906 163.48168945 C-138.12919764 160.04927942 -140.22061559 156.61824926 -142.3125 153.1875 C-145.10635605 148.60549751 -147.89876461 144.02262127 -150.6875 139.4375 C-151.03142792 138.87206482 -151.37535583 138.30662964 -151.72970581 137.72406006 C-159.67260104 124.65648401 -167.46709604 111.50117769 -175.25598145 98.34143066 C-178.25462476 93.27794275 -181.27600395 88.2283644 -184.3125 83.1875 C-176.64795981 72.12993366 -166.82030147 63.47276783 -156.3125 55.1875 C-155.2656128 54.32842204 -154.22008653 53.46768348 -153.17578125 52.60546875 C-140.62917736 42.35469727 -126.79556473 33.45656671 -112.3125 26.1875 C-111.26715088 25.65092773 -111.26715088 25.65092773 -110.20068359 25.10351562 C-75.43169097 7.35825619 -38.85344562 -0.46832673 0 0 Z " fill="#007AFF" transform="translate(250.3125,4.8125)"/>
<path d="M0 0 C81.84 0 163.68 0 248 0 C244.03070785 7.93858429 240.0190316 15.58684044 235.5 23.1875 C230.56170696 31.56890993 225.72728091 39.99782078 221 48.5 C215.9049822 57.65229306 210.69323606 66.72696052 205.39501953 75.76293945 C199.47349717 85.87138849 193.66539376 96.04323164 187.8671875 106.22265625 C185.36566786 110.61375457 182.85072632 114.9965844 180.3203125 119.37109375 C179.75715332 120.34731689 179.19399414 121.32354004 178.61376953 122.3293457 C177.56346732 124.1488632 176.50992232 125.96651394 175.45263672 127.78198242 C174.9938916 128.57838135 174.53514648 129.37478027 174.0625 130.1953125 C173.66160156 130.88641113 173.26070312 131.57750977 172.84765625 132.28955078 C171.85198697 133.98050786 171.85198697 133.98050786 172 136 C172.66 136.66 173.32 137.32 174 138 C130.62460488 133.40917351 88.81650581 107.85348003 57.27734375 79.0546875 C55.3262384 77.29434202 53.33986456 75.60815677 51.3125 73.9375 C48.16988098 71.26370992 45.51895399 68.30577348 42.85546875 65.16015625 C41.62033444 63.72219988 40.35149826 62.31251018 39.05078125 60.93359375 C24.72380658 45.70621771 13.76548272 28.02920227 3.9375 9.6875 C3.54264404 8.95128418 3.14778809 8.21506836 2.7409668 7.45654297 C0 2.2450793 0 2.2450793 0 0 Z " fill="#017AFF" transform="translate(27,351)"/>
<path d="M0 0 C51.81 0 103.62 0 157 0 C167.45717525 39.73726593 172.41354448 79.41402808 164 120 C163.78037598 121.06186523 163.56075195 122.12373047 163.33447266 123.21777344 C156.50737927 155.30946081 144.50758682 187.99317202 124 214 C121.34434213 211.60030318 119.72001447 209.03555811 117.953125 205.93359375 C117.36337891 204.90427734 116.77363281 203.87496094 116.16601562 202.81445312 C115.53373047 201.70005859 114.90144531 200.58566406 114.25 199.4375 C113.58058653 198.26598539 112.91065574 197.09476624 112.24023438 195.92382812 C110.84760003 193.49056166 109.45720253 191.05603768 108.06835938 188.62060547 C104.89970234 183.06842407 101.69820559 177.53519338 98.5 172 C97.24984475 169.83342291 95.99984527 167.66675593 94.75 165.5 C94.13125 164.4275 93.5125 163.355 92.875 162.25 C71 124.33333333 49.125 86.41666667 27.25 48.5 C26.63012207 47.42564697 26.01024414 46.35129395 25.37158203 45.24438477 C24.13261766 43.0966418 22.89400576 40.94869545 21.65576172 38.80053711 C18.71985895 33.70820563 15.78030245 28.61808305 12.82830811 23.5350647 C11.42931947 21.12565992 10.03232971 18.7150991 8.63549805 16.30444336 C7.64501929 14.59701018 6.6516406 12.89126028 5.65820312 11.18554688 C5.06201172 10.15623047 4.46582031 9.12691406 3.8515625 8.06640625 C3.32385254 7.15834229 2.79614258 6.25027832 2.25244141 5.31469727 C1 3 1 3 0 0 Z " fill="#017AFF" transform="translate(326,175)"/>
<path d="M0 0 C0.66 0 1.32 0 2 0 C2.41137207 0.72251953 2.82274414 1.44503906 3.24658203 2.18945312 C10.44409858 14.82451683 17.65173491 27.45178563 25 40 C30.4035954 49.22798735 35.72652373 58.49994691 41.02050781 67.79101562 C45.63502892 75.88744288 50.29109678 83.95797947 55 92 C60.30021368 101.05491578 65.54173096 110.14200127 70.75 119.25 C71.10078613 119.86262695 71.45157227 120.47525391 71.81298828 121.10644531 C72.80886471 122.84629173 73.80290723 124.58718747 74.796875 126.328125 C75.65297363 127.82714355 75.65297363 127.82714355 76.52636719 129.35644531 C77.74736972 131.54680573 78.90405718 133.74522142 80 136 C61.81737261 154.59899899 61.81737261 154.59899899 52 162 C51.46262207 162.41378906 50.92524414 162.82757813 50.37158203 163.25390625 C36.22711581 174.12877745 21.1556029 183.45909898 5.00537109 191.05273438 C3.67285493 191.68216738 2.34495035 192.32146105 1.02197266 192.97070312 C-30.01185327 208.19627195 -64.77840778 215.23306138 -99.22705078 215.13037109 C-101.39232209 215.12495668 -103.55739076 215.13037758 -105.72265625 215.13671875 C-107.11458379 215.13605876 -108.5065112 215.13477923 -109.8984375 215.1328125 C-111.76508057 215.13112061 -111.76508057 215.13112061 -113.66943359 215.12939453 C-116.58058533 215.01629452 -119.1742468 214.67573818 -122 214 C-118.17603267 206.13590567 -114.08789678 198.51795602 -109.625 191 C-108.38431708 188.89127156 -107.14477996 186.78186867 -105.90625 184.671875 C-105.26558594 183.58068359 -104.62492187 182.48949219 -103.96484375 181.36523438 C-100.64663463 175.68205911 -97.38458239 169.96693466 -94.125 164.25 C-93.4520712 163.0704729 -92.77913824 161.89094817 -92.10620117 160.71142578 C-90.74920407 158.33229914 -89.39273466 155.95287255 -88.03662109 153.57324219 C-84.67347949 147.67198311 -81.30621933 141.7730765 -77.9375 135.875 C-77.60606995 135.29463989 -77.27463989 134.71427979 -76.9331665 134.11633301 C-71.5307091 124.65800527 -66.09404459 115.21971616 -60.64428711 105.78857422 C-56.07273082 97.87237125 -51.53044061 89.93976686 -47 82 C-41.85681078 72.98636823 -36.69229111 63.98547414 -31.5 55 C-24.26433981 42.47751738 -17.08589744 29.92293956 -9.91845703 17.36132812 C-6.61471467 11.57284189 -3.30725829 5.78647791 0 0 Z " fill="#007AFF" transform="translate(350,279)"/>
<path d="M0 0 C10.29464367 1.75881554 19.68759856 4.36434447 29.4375 8.1875 C30.06618988 8.43054871 30.69487976 8.67359741 31.34262085 8.92401123 C40.54739843 12.48351249 49.55997517 16.26011935 58.21386719 21.01855469 C60.10328973 22.0567557 62.00783631 23.06333798 63.9140625 24.0703125 C82.73378355 34.1723269 99.56682904 47.29404652 115 62 C115.60038086 62.57169922 116.20076172 63.14339844 116.81933594 63.73242188 C125.71140352 72.26182898 133.71677265 81.06452928 141 91 C141.4856543 91.65194336 141.97130859 92.30388672 142.47167969 92.97558594 C150.2775595 103.4887073 156.94501759 114.39387172 163 126 C163.58652344 127.12019531 164.17304688 128.24039063 164.77734375 129.39453125 C166 132 166 132 166 134 C85.48 134 4.96 134 -78 134 C-73.92692064 125.85384128 -69.7969823 118.10497216 -65.0625 110.375 C-59.76655417 101.64299407 -54.57608566 92.86160711 -49.5 84 C-43.99523237 74.399846 -38.35813766 64.88975591 -32.63818359 55.41650391 C-27.38840078 46.69985745 -22.29578243 37.89773194 -17.22949219 29.07348633 C-12.58359905 20.98777391 -7.84104126 12.97027289 -3 5 C-1.999397 3.33369528 -0.9993038 1.66708419 0 0 Z " fill="#007AFF" transform="translate(304,11)"/>
<path d="M0 0 C3.1434011 2.7275714 5.03218323 6.17736725 7.09765625 9.73046875 C7.48779404 10.39274979 7.87793182 11.05503082 8.27989197 11.73738098 C9.11272648 13.15184915 9.94360766 14.56746894 10.77270508 15.98413086 C12.50925042 18.95068806 14.25544243 21.91149952 16.00328064 24.87141418 C16.8325352 26.27620846 17.66039878 27.68182515 18.48658752 29.08842468 C21.62365993 34.4152408 24.88360253 39.65863793 28.1913147 44.88084412 C32.63979003 51.90724199 36.82832911 59.09340994 41.0625 66.25 C47.23441166 76.68129529 53.44518912 87.08593195 59.75 97.4375 C65.65309819 107.13040728 71.51690076 116.84569532 77.34570312 126.58349609 C82.29412586 134.84257495 87.2949769 143.06921782 92.30340576 151.29196167 C99.12580595 162.49940296 105.82928218 173.77604269 112.49316406 185.07836914 C113.24772497 186.35582171 114.00259997 187.63308881 114.7578125 188.91015625 C115.29728516 189.8231826 115.29728516 189.8231826 115.84765625 190.75465393 C118.70198057 195.55904421 121.70204424 200.25934878 124.78076172 204.92358398 C126 207 126 207 126 209 C74.19 209 22.38 209 -31 209 C-37.4817379 184.36939598 -41.42172771 161.69676361 -41.3125 136.4375 C-41.31001251 135.51491394 -41.30752502 134.59232788 -41.30496216 133.64178467 C-41.13123046 91.88570927 -31.26262076 31.26262076 0 0 Z " fill="#017AFF" transform="translate(46,113)"/>
</svg>
