<?xml version="1.0" encoding="UTF-8"?>
<svg version="1.1" xmlns="http://www.w3.org/2000/svg" width="500" height="500">
<path d="M0 0 C2.18684482 0.01005893 4.37369416 0.01917959 6.56054688 0.02734375 C11.8529654 0.04910544 17.14521069 0.08234794 22.4375 0.125 C22.4375 3.85460618 21.32238941 5.43841559 19.46484375 8.6640625 C18.82023193 9.78893066 18.17562012 10.91379883 17.51147461 12.07275391 C16.79959504 13.29866445 16.0874293 14.52440885 15.375 15.75 C14.64365638 17.01854153 13.9126219 18.28726135 13.18188477 19.55615234 C7.89733625 28.70904497 2.48243596 37.78165184 -2.98461914 46.82666016 C-7.43805284 54.20683609 -11.77498479 61.64735934 -16.0625 69.125 C-20.97007115 77.68274092 -25.96365176 86.17982507 -31.0625 94.625 C-36.85491233 104.22080914 -42.50039927 113.89261254 -48.08251953 123.61206055 C-52.50556857 131.30881241 -56.99028744 138.96595783 -61.51708984 146.60205078 C-65.60971363 153.50719391 -69.67872917 160.42588998 -73.73605347 167.35180664 C-74.80745421 169.17889528 -75.88111784 171.0046367 -76.95532227 172.83007812 C-80.37430127 178.64565245 -83.77077062 184.47172026 -87.10128784 190.33851624 C-88.64517388 193.05543011 -90.19986449 195.7660845 -91.75549316 198.47628784 C-92.49834119 199.77764889 -93.23579187 201.08210661 -93.96765137 202.38967896 C-94.98210013 204.20132362 -96.0142106 206.00172952 -97.05078125 207.80078125 C-97.63384033 208.83114502 -98.21689941 209.86150879 -98.81762695 210.9230957 C-99.39343506 211.64972412 -99.96924316 212.37635254 -100.5625 213.125 C-101.8825 213.125 -103.2025 213.125 -104.5625 213.125 C-105.04936279 212.26374512 -105.53622559 211.40249023 -106.0378418 210.51513672 C-110.67613811 202.33755387 -115.46418569 194.26772834 -120.375 186.25 C-126.80807525 175.7128465 -133.1486643 165.12380378 -139.4375 154.5 C-145.1205456 144.90332481 -150.83263722 135.32845619 -156.67578125 125.828125 C-160.2187682 120.06704414 -163.72590601 114.2841459 -167.23529053 108.50256348 C-168.69254327 106.10187753 -170.15039229 103.70155438 -171.60900879 101.30169678 C-172.6244903 99.6268047 -173.63384246 97.94820132 -174.64306641 96.26953125 C-175.89005672 94.22663691 -177.16703003 92.20163933 -178.47802734 90.19921875 C-179.04602051 89.31878906 -179.61401367 88.43835938 -180.19921875 87.53125 C-180.70541748 86.77134766 -181.21161621 86.01144531 -181.7331543 85.22851562 C-182.5625 83.125 -182.5625 83.125 -181.81469727 80.98217773 C-154.31136754 40.19102367 -98.66942874 15.29789732 -52.625 4.4375 C-51.35716675 4.13332153 -51.35716675 4.13332153 -50.0637207 3.82299805 C-33.42003818 0.06707421 -16.98370904 -0.137373 0 0 Z " fill="#017AFD" transform="translate(250.5625,7.875)"/>
<path d="M0 0 C80.85 0 161.7 0 245 0 C243.49112951 4.52661148 242.16040674 7.76966623 239.83203125 11.796875 C239.19362305 12.90732178 238.55521484 14.01776855 237.89746094 15.16186523 C237.20256928 16.35796554 236.50757979 17.55400901 235.8125 18.75 C235.09227765 19.99849342 234.37255888 21.24727747 233.65332031 22.49633789 C231.80158974 25.70940854 229.94370957 28.91887721 228.08428955 32.12750244 C226.39484773 35.04505862 224.71116946 37.96591738 223.02734375 40.88671875 C220.52915337 45.21979793 218.02893002 49.5516931 215.52734375 53.8828125 C210.32071232 62.9042456 205.15989923 71.95178566 200 81 C193.33835844 92.68161585 186.65542922 104.35066242 179.9375 116 C179.29385498 117.11656982 178.65020996 118.23313965 177.98706055 119.38354492 C177.381604 120.4326001 176.77614746 121.48165527 176.15234375 122.5625 C175.61601318 123.49191406 175.07968262 124.42132813 174.52709961 125.37890625 C173.03933216 127.93249079 171.52643912 130.4693773 170 133 C171.32 134.32 172.64 135.64 174 137 C170.20652187 138.26449271 168.67714871 137.53064149 164.875 136.375 C163.62203125 135.99859375 162.3690625 135.6221875 161.078125 135.234375 C160.41232422 135.03134766 159.74652344 134.82832031 159.06054688 134.61914062 C156.99923442 133.99976996 154.93158706 133.40990097 152.859375 132.828125 C137.10828136 128.38026312 122.46039362 122.67437849 108 115 C107.28054199 114.62359375 106.56108398 114.2471875 105.81982422 113.859375 C77.07803919 98.75530579 49.2882592 77.33589237 30 51 C28.94941106 49.63686778 27.89715603 48.2750189 26.84375 46.9140625 C18.12929017 35.52434296 10.73366767 23.65704889 4 11 C3.5968457 10.24638184 3.19369141 9.49276367 2.77832031 8.71630859 C0 3.37516433 0 3.37516433 0 0 Z " fill="#007AFE" transform="translate(30,350)"/>
<path d="M0 0 C3.64751775 1.21583925 3.85255743 2.00287997 5.64453125 5.28515625 C6.14895752 6.19547607 6.65338379 7.1057959 7.1730957 8.04370117 C7.71409912 9.03990479 8.25510254 10.0361084 8.8125 11.0625 C9.98801246 13.18576628 11.1651458 15.30813586 12.34375 17.4296875 C13.25253906 19.0708252 13.25253906 19.0708252 14.1796875 20.74511719 C16.98804845 25.76671969 19.89776641 30.72712766 22.8125 35.6875 C27.90896012 44.38569621 32.9442545 53.11724256 37.9375 61.875 C44.94827241 74.16959868 52.00720683 86.4357199 59.08837891 98.68994141 C61.11685142 102.20233353 63.14276619 105.71619071 65.16796875 109.23046875 C65.85798299 110.42757654 66.54800568 111.62467946 67.23803711 112.82177734 C68.54780755 115.09402972 69.85715172 117.3665259 71.16625977 119.63916016 C72.05075806 121.1732251 72.05075806 121.1732251 72.953125 122.73828125 C73.47036133 123.63587158 73.98759766 124.53346191 74.52050781 125.45825195 C75.53593633 127.20274474 76.61821274 128.90949598 77.75292969 130.57885742 C79 133 79 133 78.89526367 135.07983398 C77.8025384 137.42351663 76.50062463 138.88781895 74.67578125 140.72265625 C73.98419922 141.42044189 73.29261719 142.11822754 72.58007812 142.8371582 C71.83177734 143.571521 71.08347656 144.30588379 70.3125 145.0625 C69.54228516 145.82328857 68.77207031 146.58407715 67.97851562 147.36791992 C61.36075677 153.81422363 54.46191499 159.57006186 47 165 C46.35627441 165.47743652 45.71254883 165.95487305 45.04931641 166.44677734 C10.10611442 192.31163963 -30.65574739 208.5781664 -74 213 C-74.95261719 213.11085938 -75.90523438 213.22171875 -76.88671875 213.3359375 C-84.6836356 214.10626039 -92.48337746 214.10221095 -100.3125 214.125 C-101.43438721 214.12967285 -102.55627441 214.1343457 -103.7121582 214.13916016 C-109.57034071 214.12780963 -115.20789123 213.8889229 -121 213 C-119.6027689 209.30186644 -117.93435305 205.90404002 -116.015625 202.44921875 C-115.41758057 201.37099854 -114.81953613 200.29277832 -114.20336914 199.18188477 C-113.55250418 198.01694561 -112.90137409 196.85215455 -112.25 195.6875 C-111.91708954 195.09009003 -111.58417908 194.49268005 -111.24118042 193.87716675 C-106.0492007 184.56191234 -100.73633951 175.32238542 -95.33837891 166.12475586 C-90.88199232 158.5292363 -86.48827642 150.89926747 -82.125 143.25 C-81.62531708 142.3742482 -81.62531708 142.3742482 -81.11553955 141.48080444 C-79.42183072 138.51203629 -77.7289385 135.5428037 -76.03662109 132.57324219 C-72.67347949 126.67198311 -69.30621933 120.7730765 -65.9375 114.875 C-65.60606995 114.29463989 -65.27463989 113.71427979 -64.9331665 113.11633301 C-59.52989752 103.65658441 -54.09191294 94.21717178 -48.64208984 84.78417969 C-44.09512024 76.90943316 -39.57176066 69.02138282 -35.0625 61.125 C-34.73238922 60.54694611 -34.40227844 59.96889221 -34.06216431 59.37332153 C-31.70732972 55.24932597 -29.35357164 51.12471642 -27 47 C-24.22990249 42.14541306 -21.45930198 37.29111399 -18.6875 32.4375 C-18.35485138 31.85498474 -18.02220276 31.27246948 -17.67947388 30.67230225 C-11.8263095 20.42491396 -5.93064406 10.20271818 0 0 Z " fill="#017AFD" transform="translate(349,278)"/>
<path d="M0 0 C51.48 0 102.96 0 156 0 C162.92553879 25.39364224 162.92553879 25.39364224 164.3125 35.5625 C164.46783203 36.59439453 164.62316406 37.62628906 164.78320312 38.68945312 C173.55548621 98.96595618 159.36484656 163.68017686 123 213 C119.78495871 210.05163811 117.7563801 207.12712581 115.6796875 203.30078125 C115.06738281 202.1830835 114.45507812 201.06538574 113.82421875 199.91381836 C113.34734619 199.0325679 113.34734619 199.0325679 112.86083984 198.1335144 C111.18999761 195.0471837 109.49592848 191.97362224 107.8046875 188.8984375 C107.4719281 188.29202927 107.1391687 187.68562103 106.79632568 187.06083679 C104.27418924 182.47250546 101.67862611 177.93589479 99 173.4375 C94.90649273 166.55031138 90.87727013 159.62815868 86.875 152.6875 C86.24021729 151.58672119 85.60543457 150.48594238 84.95141602 149.35180664 C79.91857329 140.61392699 74.91914816 131.8572115 69.92401123 123.0977478 C65.32697775 115.03901259 60.68723496 107.00663618 56 99 C50.9681931 90.40477328 45.99610928 81.7768787 41.0625 73.125 C34.05151413 60.83052236 26.99279401 48.56428156 19.91162109 36.31005859 C17.88314858 32.79766647 15.85723381 29.28380929 13.83203125 25.76953125 C13.14201701 24.57242346 12.45199432 23.37532054 11.76196289 22.17822266 C10.45219245 19.90597028 9.14284828 17.6334741 7.83374023 15.36083984 C7.24407471 14.33812988 6.65440918 13.31541992 6.046875 12.26171875 C5.52963867 11.36412842 5.01240234 10.46653809 4.47949219 9.54174805 C3.45173775 7.7760795 2.39259918 6.02845695 1.30957031 4.29614258 C0 2 0 2 0 0 Z " fill="#007AFD" transform="translate(325,176)"/>
<path d="M0 0 C32.39431361 3.0995726 65.53570713 21.51171162 91 41 C91.57266602 41.43135254 92.14533203 41.86270508 92.73535156 42.30712891 C124.28993701 66.11649793 148.58186125 96.54792972 166 132 C166 132.33 166 132.66 166 133 C85.81 133 5.62 133 -77 133 C-75.31644272 128.7911068 -73.41856835 124.98025602 -71.1875 121.0625 C-70.60307129 120.03020264 -70.60307129 120.03020264 -70.00683594 118.97705078 C-65.00856833 110.19426994 -59.83649692 101.51289028 -54.67626953 92.82470703 C-52.00599142 88.32498117 -49.34734958 83.81839523 -46.6875 79.3125 C-43.18416505 73.37910612 -39.67447087 67.44960532 -36.15234375 61.52734375 C-28.7421643 49.06098743 -21.41100475 36.55822122 -14.18579102 23.98388672 C-9.55303793 15.93012937 -4.83208861 7.9356252 0 0 Z " fill="#0179FD" transform="translate(303,14)"/>
<path d="M0 0 C2.34970881 2.17649584 3.93861088 4.35263732 5.5390625 7.12109375 C6.27213623 8.37768799 6.27213623 8.37768799 7.02001953 9.65966797 C7.54966309 10.57635254 8.07930664 11.49303711 8.625 12.4375 C13.70604382 21.13692853 18.87732687 29.77516071 24.125 38.375 C30.4109958 48.6838748 36.60331471 59.04501753 42.75 69.4375 C48.40371771 78.99547784 54.12275357 88.50022493 60.01098633 97.91625977 C64.93998099 105.83158616 69.68947061 113.85041771 74.4375 121.875 C81.5963667 133.97236257 88.83659366 146.01476593 96.17089844 158.00683594 C99.70563867 163.79112788 103.22934945 169.58212366 106.75 175.375 C107.11175323 175.97014404 107.47350647 176.56528809 107.84622192 177.1784668 C113.65206815 186.73460108 119.37965903 196.33356591 125 206 C123 208 123 208 120.34882927 208.23047829 C119.2150239 208.22126036 118.08121853 208.21204243 116.91305542 208.20254517 C115.61452637 208.19688034 114.31599731 208.19121552 112.9781189 208.18537903 C111.53082062 208.16885622 110.08352453 208.15214136 108.63623047 208.13525391 C107.11871907 208.12483239 105.60120137 208.11529631 104.0836792 208.10658264 C99.95572347 208.08035689 95.8279655 208.04169199 91.70013189 208.00085878 C87.38934336 207.96030966 83.07847865 207.93110984 78.76760864 207.90072632 C70.60067489 207.84142986 62.43386183 207.77186874 54.26704228 207.69865549 C44.97098025 207.61581603 35.67484174 207.54436516 26.37867904 207.47388959 C7.2523395 207.32863388 -11.87385642 207.16901546 -31 207 C-31.64350254 204.93519261 -32.28484818 202.86971294 -32.92529297 200.80395508 C-33.28267548 199.65381424 -33.64005798 198.5036734 -34.00827026 197.31867981 C-35.25657242 193.1414176 -36.25224134 188.95642825 -37.125 184.6875 C-37.28097656 183.97400391 -37.43695313 183.26050781 -37.59765625 182.52539062 C-40.82250903 167.08074446 -41.40458638 151.84882958 -41.375 136.125 C-41.37478851 135.08741547 -41.37457703 134.04983093 -41.37435913 132.98080444 C-41.34181016 116.96933475 -40.52689965 101.67253352 -37 86 C-36.81808105 85.13632813 -36.63616211 84.27265625 -36.44873047 83.3828125 C-30.70992414 56.38631875 -20.02615569 20.02615569 0 0 Z " fill="#007AFD" transform="translate(49,114)"/>
<path d="M0 0 C80.85 0 161.7 0 245 0 C243.3076893 5.07693209 242.3480027 7.20559694 239 11 C239 9.02 239 7.04 239 5 C239.99 5 240.98 5 242 5 C242 3.68 242 2.36 242 1 C162.8 1 83.6 1 2 1 C1.67 2.32 1.34 3.64 1 5 C0.67 3.35 0.34 1.7 0 0 Z " fill="#2C84E0" transform="translate(30,350)"/>
<path d="M0 0 C51.48 0 102.96 0 156 0 C159 10 159 10 159 14 C158.34 14 157.68 14 157 14 C156.66307215 12.39658445 156.33058907 10.79223445 156 9.1875 C155.814375 8.29417969 155.62875 7.40085938 155.4375 6.48046875 C155 4 155 4 155 1 C104.51 1 54.02 1 2 1 C1.67 1.99 1.34 2.98 1 4 C0.67 2.68 0.34 1.36 0 0 Z " fill="#2F85E3" transform="translate(325,176)"/>
<path d="M0 0 C1.59373707 3.18747415 2.36787519 5.10632795 3 8.46484375 C3.1640332 9.33592773 3.32806641 10.20701172 3.49707031 11.10449219 C9.44687151 44.61978012 9.4864008 77.49803128 3 111 C2.67 111 2.34 111 2 111 C2.14017826 108.02046641 2.28686342 105.04150696 2.4375 102.0625 C2.47681641 101.21236328 2.51613281 100.36222656 2.55664062 99.48632812 C2.59853516 98.67744141 2.64042969 97.86855469 2.68359375 97.03515625 C2.72025146 96.2862915 2.75690918 95.53742676 2.79467773 94.76586914 C3 93 3 93 4 92 C4.21267742 89.41242474 4.3767855 86.84206806 4.5 84.25 C4.87088173 76.61258368 4.87088173 76.61258368 5.51953125 73.53515625 C6.23568543 69.75642406 6.19127842 66.02561536 6.1875 62.1875 C6.18669434 61.32527832 6.18588867 60.46305664 6.18505859 59.57470703 C6.12067413 52.48357929 5.70027491 45.44179812 5.125 38.375 C5.04660889 37.39297607 4.96821777 36.41095215 4.88745117 35.39916992 C4.33498731 29.15998313 3.36094329 23.11339065 2 17 C0.68 16.67 -0.64 16.34 -2 16 C-1.34 16 -0.68 16 0 16 C0 10.72 0 5.44 0 0 Z " fill="#2179DB" transform="translate(484,190)"/>
<path d="M0 0 C5.92909506 0.5861719 11.31580266 1.80404381 17 3.5625 C17.77472656 3.79646484 18.54945313 4.03042969 19.34765625 4.27148438 C21.2335214 4.84190038 23.1170209 5.42012803 25 6 C25 6.33 25 6.66 25 7 C17.57142857 9.14285714 17.57142857 9.14285714 14 10 C14.66 9.67 15.32 9.34 16 9 C15.20882096 7.00016466 15.20882096 7.00016466 14 5 C10.99221479 3.99740493 8.46179353 3.69685358 5.3125 3.4375 C4.31863281 3.35371094 3.32476562 3.26992188 2.30078125 3.18359375 C1.16189453 3.09271484 1.16189453 3.09271484 0 3 C0.103125 3.886875 0.20625 4.77375 0.3125 5.6875 C-0.0971319 10.02959813 -1.79821097 11.18867305 -5 14 C-5.33 14.66 -5.66 15.32 -6 16 C-6.66 16 -7.32 16 -8 16 C-8.33 17.65 -8.66 19.3 -9 21 C-9.99 21.33 -10.98 21.66 -12 22 C-10.2657267 17.02642312 -7.56672043 12.68501047 -4.875 8.1875 C-4.40707031 7.39923828 -3.93914062 6.61097656 -3.45703125 5.79882812 C-2.30784603 3.86397546 -1.15542997 1.93112772 0 0 Z " fill="#1B77DF" transform="translate(303,14)"/>
<path d="M0 0 C15.18 0 30.36 0 46 0 C46 3.92426335 44.55673531 5.82899908 42.5625 9.1875 C41.60537109 10.81751953 41.60537109 10.81751953 40.62890625 12.48046875 C40.09136719 13.31191406 39.55382812 14.14335937 39 15 C38.67 15 38.34 15 38 15 C37.505 10.545 37.505 10.545 37 6 C38.32 5.34 39.64 4.68 41 4 C41 3.34 41 2.68 41 2 C20.705 1.505 20.705 1.505 0 1 C0 0.67 0 0.34 0 0 Z " fill="#1A7AE6" transform="translate(227,8)"/>
<path d="M0 0 C0.33 0 0.66 0 1 0 C0.67 2.31 0.34 4.62 0 7 C-0.99 7.33 -1.98 7.66 -3 8 C-2.2575 8.928125 -2.2575 8.928125 -1.5 9.875 C0 12 0 12 0 14 C2.98367726 14.99455909 5.2004192 15.19559632 8.32421875 15.31640625 C9.86625977 15.37924805 9.86625977 15.37924805 11.43945312 15.44335938 C13.04723633 15.50233398 13.04723633 15.50233398 14.6875 15.5625 C15.77095703 15.60568359 16.85441406 15.64886719 17.97070312 15.69335938 C20.64700791 15.79946838 23.32340526 15.90152361 26 16 C26 16.33 26 16.66 26 17 C21.83334831 17.02926019 17.66672341 17.04688594 13.5 17.0625 C11.74042969 17.07506836 11.74042969 17.07506836 9.9453125 17.08789062 C3.86205118 17.10497844 -1.98754144 16.94502752 -8 16 C-6.57250019 12.20950293 -4.83763458 8.72877544 -2.875 5.1875 C-2.33617187 4.21167969 -1.79734375 3.23585938 -1.2421875 2.23046875 C-0.83226562 1.49441406 -0.42234375 0.75835937 0 0 Z " fill="#207FE3" transform="translate(236,475)"/>
<path d="M0 0 C0.33 0.66 0.66 1.32 1 2 C-0.08580279 4.18022763 -1.22217506 6.21441382 -2.48046875 8.29296875 C-2.84972977 8.91722244 -3.21899078 9.54147614 -3.59944153 10.18464661 C-4.78796574 12.19016301 -5.98745222 14.18886187 -7.1875 16.1875 C-7.97796147 17.51583125 -8.76768406 18.84460249 -9.55664062 20.17382812 C-10.6782205 22.06305131 -11.8007735 23.95160015 -12.929245 25.8367157 C-15.33861837 29.86277568 -17.68290631 33.92047241 -20 38 C-20.33 38 -20.66 38 -21 38 C-21 36.35 -21 34.7 -21 33 C-20.34 33 -19.68 33 -19 33 C-19 32.01 -19 31.02 -19 30 C-18.34 30 -17.68 30 -17 30 C-16.67 27.69 -16.34 25.38 -16 23 C-15.01 23 -14.02 23 -13 23 C-13 21.35 -13 19.7 -13 18 C-11.68 17.34 -10.36 16.68 -9 16 C-9 14.68 -9 13.36 -9 12 C-8.34 12 -7.68 12 -7 12 C-7 11.01 -7 10.02 -7 9 C-6.34 9 -5.68 9 -5 9 C-5 7.35 -5 5.7 -5 4 C-4.360625 3.896875 -3.72125 3.79375 -3.0625 3.6875 C-2.381875 3.460625 -1.70125 3.23375 -1 3 C-0.67 2.01 -0.34 1.02 0 0 Z " fill="#1C79DE" transform="translate(240,64)"/>
<path d="M0 0 C3.66071002 3.11838261 5.58915815 6.67006813 7.75390625 10.87890625 C9.00850088 13.01447015 10.03271792 14.49447606 12 16 C13.32 16 14.64 16 16 16 C15.67 18.97 15.34 21.94 15 25 C15.66 25 16.32 25 17 25 C17.33 26.98 17.66 28.96 18 31 C15.08410079 28.41756947 13.36510485 25.4475129 11.42578125 22.08984375 C11.09708542 21.52173477 10.76838959 20.95362579 10.42973328 20.36830139 C9.73915833 19.17192342 9.05095451 17.97417401 8.36499023 16.77514648 C7.31197413 14.93658182 6.24932747 13.10383725 5.18554688 11.27148438 C4.51504282 10.10710588 3.84510116 8.94240332 3.17578125 7.77734375 C2.56645752 6.71765381 1.95713379 5.65796387 1.3293457 4.56616211 C0 2 0 2 0 0 Z " fill="#1579E8" transform="translate(382,275)"/>
<path d="M0 0 C3.3 0.33 6.6 0.66 10 1 C4.75883156 3.62058422 -0.3102014 4.22254758 -6.0625 5.125 C-7.14466797 5.30675781 -8.22683594 5.48851562 -9.34179688 5.67578125 C-16.28802082 6.78417691 -22.96944176 7.23748914 -30 7 C-30 6.34 -30 5.68 -30 5 C-28.71222656 4.93941406 -27.42445313 4.87882812 -26.09765625 4.81640625 C-24.41925841 4.73201753 -22.74087364 4.6473687 -21.0625 4.5625 C-19.78729492 4.50352539 -19.78729492 4.50352539 -18.48632812 4.44335938 C-17.67744141 4.40146484 -16.86855469 4.35957031 -16.03515625 4.31640625 C-15.2862915 4.27974854 -14.53742676 4.24309082 -13.76586914 4.20532227 C-11.97538674 4.18228937 -11.97538674 4.18228937 -11 3 C-9.15108054 2.76636119 -7.29511969 2.58696365 -5.4375 2.4375 C-4.42558594 2.35371094 -3.41367187 2.26992188 -2.37109375 2.18359375 C-1.58863281 2.12300781 -0.80617188 2.06242187 0 2 C0 1.34 0 0.68 0 0 Z " fill="#1D7EE3" transform="translate(294,484)"/>
<path d="M0 0 C3.87858205 4.50804166 6.8180712 9.44977567 9.8125 14.5625 C10.5849707 15.83770508 10.5849707 15.83770508 11.37304688 17.13867188 C11.85451172 17.96044922 12.33597656 18.78222656 12.83203125 19.62890625 C13.27264893 20.37213135 13.7132666 21.11535645 14.16723633 21.88110352 C15.1597699 24.40652094 15.05248837 25.52369591 14 28 C13.34 28.33 12.68 28.66 12 29 C11.67 26.03 11.34 23.06 11 20 C9.68 20 8.36 20 7 20 C7 19.34 7 18.68 7 18 C7.66 18 8.32 18 9 18 C8.505 17.401875 8.01 16.80375 7.5 16.1875 C6 14 6 14 6 11 C5.34 11 4.68 11 4 11 C3.67 9.35 3.34 7.7 3 6 C1.68 6.33 0.36 6.66 -1 7 C-0.67 4.69 -0.34 2.38 0 0 Z " fill="#1E7ADD" transform="translate(413,387)"/>
<path d="M0 0 C1.05603065 3.18226684 0.97463666 4.85691226 -0.3125 7.9375 C-0.73402344 8.989375 -0.73402344 8.989375 -1.1640625 10.0625 C-1.8005818 11.53779707 -2.4837909 12.99304448 -3.1875 14.4375 C-4.03321632 17.10475917 -3.99541706 18.85540751 -3.875 21.625 C-3.8125 24 -3.8125 24 -4 26 C-5.875 27.625 -5.875 27.625 -8 29 C-9.28842537 32.59067962 -9.28842537 32.59067962 -10 36 C-11.6139751 31.96819739 -10.30503761 29.09777883 -8.9453125 25.1171875 C-8.72430878 24.46170929 -8.50330505 23.80623108 -8.27560425 23.13088989 C-7.56851925 21.04211596 -6.84682418 18.9587203 -6.125 16.875 C-5.64620458 15.46515953 -5.16832942 14.05500617 -4.69140625 12.64453125 C-1.23111509 2.46223019 -1.23111509 2.46223019 0 0 Z " fill="#1F77DE" transform="translate(26,155)"/>
<path d="M0 0 C1.32 0 2.64 0 4 0 C4.19335938 0.60328125 4.38671875 1.2065625 4.5859375 1.828125 C4.84632812 2.62734375 5.10671875 3.4265625 5.375 4.25 C5.63023438 5.03890625 5.88546875 5.8278125 6.1484375 6.640625 C7.64079013 10.77540017 8.495209 12.62645466 12.125 15.3125 C15 18 15 18 15.375 21.8125 C15.25125 22.864375 15.1275 23.91625 15 25 C12.50608189 22.70478205 10.82645903 20.30164332 9.08203125 17.40234375 C8.55029297 16.51869141 8.01855469 15.63503906 7.47070312 14.72460938 C6.92349609 13.80486328 6.37628906 12.88511719 5.8125 11.9375 C5.25369141 11.01388672 4.69488281 10.09027344 4.11914062 9.13867188 C3.59126953 8.25630859 3.06339844 7.37394531 2.51953125 6.46484375 C2.03589111 5.656521 1.55225098 4.84819824 1.05395508 4.01538086 C0 2 0 2 0 0 Z " fill="#277AD8" transform="translate(112,162)"/>
<path d="M0 0 C0.33 0 0.66 0 1 0 C1 3.63 1 7.26 1 11 C0.34 11 -0.32 11 -1 11 C-1 14.96 -1 18.92 -1 23 C-1.66 23 -2.32 23 -3 23 C-2.97679687 23.61488281 -2.95359375 24.22976562 -2.9296875 24.86328125 C-2.91164063 25.67152344 -2.89359375 26.47976562 -2.875 27.3125 C-2.85179687 28.11300781 -2.82859375 28.91351563 -2.8046875 29.73828125 C-3 32 -3 32 -5 35 C-5.33403191 27.19200413 -4.06333322 20.07248145 -2.5 12.4375 C-2.26152344 11.23802734 -2.02304688 10.03855469 -1.77734375 8.80273438 C-1.19251067 5.86687232 -0.59990091 2.93281346 0 0 Z " fill="#1E7AE0" transform="translate(14,191)"/>
<path d="M0 0 C3.28465896 2.79196011 5.01321958 6.23196817 7 10 C7 10.66 7 11.32 7 12 C5.68 12 4.36 12 3 12 C2.67 12.66 2.34 13.32 2 14 C0.4375 12.875 0.4375 12.875 -1 11 C-0.625 7.9375 -0.625 7.9375 0 5 C-0.33 4.34 -0.66 3.68 -1 3 C-0.67 2.01 -0.34 1.02 0 0 Z " fill="#0279FB" transform="translate(361,297)"/>
<path d="M0 0 C0.99 1.32 1.98 2.64 3 4 C1.46314437 7.07371125 -0.72339006 9.4457547 -3 12 C-3.66 12 -4.32 12 -5 12 C-5.0825 12.78375 -5.165 13.5675 -5.25 14.375 C-6 17 -6 17 -8.0625 18.3125 C-9.0215625 18.6528125 -9.0215625 18.6528125 -10 19 C-8.40376856 14.60616294 -6.21975667 10.71004193 -3.875 6.6875 C-3.50246094 6.04232422 -3.12992188 5.39714844 -2.74609375 4.73242188 C-1.83367787 3.15324055 -0.91724491 1.57638136 0 0 Z " fill="#1178E9" transform="translate(250,104)"/>
<path d="M0 0 C1.76462683 3.08809695 2 4.23312136 2 8 C1.195625 8.474375 0.39125 8.94875 -0.4375 9.4375 C-3.25476709 10.76479918 -3.25476709 10.76479918 -3.8125 13.6875 C-3.874375 14.450625 -3.93625 15.21375 -4 16 C-5.65 16.33 -7.3 16.66 -9 17 C-7.51481201 12.95698825 -5.57122002 9.38853744 -3.375 5.6875 C-2.74335938 4.61886719 -2.11171875 3.55023438 -1.4609375 2.44921875 C-0.97882813 1.64097656 -0.49671875 0.83273438 0 0 Z " fill="#1378E5" transform="translate(270,70)"/>
<path d="M0 0 C0.66 0 1.32 0 2 0 C0.23570801 4.97209562 -2.3939166 9.43438061 -5 14 C-5.77897741 11.66306776 -6.40410569 9.38357723 -7 7 C-7.33 6.01 -7.66 5.02 -8 4 C-6.625 2.5 -6.625 2.5 -5 1 C-4.34 1 -3.68 1 -3 1 C-3 1.66 -3 2.32 -3 3 C-2.01 3 -1.02 3 0 3 C0 2.01 0 1.02 0 0 Z " fill="#1379EA" transform="translate(169,183)"/>
<path d="M0 0 C1.32 0.33 2.64 0.66 4 1 C1.7136988 2.36402043 -0.57821749 3.71634274 -2.875 5.0625 C-3.85146484 5.64741211 -3.85146484 5.64741211 -4.84765625 6.24414062 C-6.53065725 7.22444533 -8.26296199 8.11898432 -10 9 C-10.66 8.67 -11.32 8.34 -12 8 C-11.67 6.35 -11.34 4.7 -11 3 C-9.68 3 -8.36 3 -7 3 C-7 2.34 -7 1.68 -7 1 C-4.69 1.33 -2.38 1.66 0 2 C0 1.34 0 0.68 0 0 Z " fill="#0E7CF1" transform="translate(373,455)"/>
<path d="M0 0 C3.08539112 2.72412697 5.11188908 6.09188781 7.25 9.5625 C7.81460938 10.44711914 7.81460938 10.44711914 8.390625 11.34960938 C9.3260331 12.86105004 10.17093646 14.42771031 11 16 C10.67 16.66 10.34 17.32 10 18 C8.65009646 17.02248365 7.31963709 16.01800576 6 15 C5.401875 14.54625 4.80375 14.0925 4.1875 13.625 C3 12 3 12 3.3125 9.3125 C3.539375 8.549375 3.76625 7.78625 4 7 C2.68 6.67 1.36 6.34 0 6 C0 4.02 0 2.04 0 0 Z " fill="#1A77DC" transform="translate(85,174)"/>
<path d="M0 0 C0.99 0 1.98 0 3 0 C3.73211081 5.85688646 1.48028193 9.5041604 -2 14 C-2.33 14 -2.66 14 -3 14 C-3.33 11.03 -3.66 8.06 -4 5 C-2.68 4.34 -1.36 3.68 0 3 C0 2.01 0 1.02 0 0 Z " fill="#1178ED" transform="translate(268,9)"/>
<path d="M0 0 C1.1055189 0.93590504 2.20935453 1.87379858 3.3125 2.8125 C3.92738281 3.33457031 4.54226563 3.85664062 5.17578125 4.39453125 C6.85424679 5.87172469 8.43882034 7.40039131 10 9 C9.67 9.66 9.34 10.32 9 11 C7.68 10.67 6.36 10.34 5 10 C4.67 10.99 4.34 11.98 4 13 C2 10 2 10 2.0625 7.4375 C2.041875 6.633125 2.02125 5.82875 2 5 C1.01 4.34 0.02 3.68 -1 3 C-0.67 2.01 -0.34 1.02 0 0 Z " fill="#167CEA" transform="translate(417,75)"/>
<path d="M0 0 C7.95800678 2.292985 14.81917721 5.94899487 22 10 C18.28125 11.1171875 18.28125 11.1171875 15.75 10.0625 C15.1725 9.711875 14.595 9.36125 14 9 C14 8.34 14 7.68 14 7 C13.236875 6.855625 12.47375 6.71125 11.6875 6.5625 C9 6 9 6 6 5 C6 4.34 6 3.68 6 3 C5.195625 2.87625 4.39125 2.7525 3.5625 2.625 C2.716875 2.41875 1.87125 2.2125 1 2 C0.67 1.34 0.34 0.68 0 0 Z " fill="#1C79DB" transform="translate(346,28)"/>
<path d="M0 0 C0.66 0 1.32 0 2 0 C2.66 0.99 3.32 1.98 4 3 C4.66 3 5.32 3 6 3 C6.33 2.34 6.66 1.68 7 1 C7.99 2.32 8.98 3.64 10 5 C9.34 5.66 8.68 6.32 8 7 C7.30251417 8.31747324 6.63040043 9.64914193 6 11 C4.99735282 9.35577799 3.99794896 7.70957779 3 6.0625 C2.443125 5.14597656 1.88625 4.22945313 1.3125 3.28515625 C0 1 0 1 0 0 Z " fill="#117CEB" transform="translate(38,367)"/>
<path d="M0 0 C5.61 0 11.22 0 17 0 C20 9.5 20 9.5 20 14 C19.34 14 18.68 14 18 14 C17.66307215 12.39658445 17.33058907 10.79223445 17 9.1875 C16.814375 8.29417969 16.62875 7.40085938 16.4375 6.48046875 C16 4 16 4 16 1 C10.72 1 5.44 1 0 1 C0 0.67 0 0.34 0 0 Z " fill="#3082DC" transform="translate(464,176)"/>
<path d="M0 0 C0.66 0 1.32 0 2 0 C2.33 0.99 2.66 1.98 3 3 C5.01508358 3.73323796 5.01508358 3.73323796 7 4 C5.23358317 4.6987693 3.46167336 5.38366583 1.6875 6.0625 C0.20830078 6.63677734 0.20830078 6.63677734 -1.30078125 7.22265625 C-4 8 -4 8 -7 7 C-6.67 6.34 -6.34 5.68 -6 5 C-3.4375 4.375 -3.4375 4.375 -1 4 C-0.67 2.68 -0.34 1.36 0 0 Z " fill="#187BE9" transform="translate(330,472)"/>
<path d="M0 0 C2 3 2 3 3 6 C1.35 6.66 -0.3 7.32 -2 8 C-2 8.66 -2 9.32 -2 10 C-2.66 10 -3.32 10 -4 10 C-4 10.66 -4 11.32 -4 12 C-4.66 12 -5.32 12 -6 12 C-4.43358249 7.69235185 -2.31663844 3.93828536 0 0 Z " fill="#1276E8" transform="translate(285,390)"/>
<path d="M0 0 C0.33 0 0.66 0 1 0 C1.66 2.31 2.32 4.62 3 7 C2.01 7.99 1.02 8.98 0 10 C-0.66 9.67 -1.32 9.34 -2 9 C-2.33 9.33 -2.66 9.66 -3 10 C-3.66 10 -4.32 10 -5 10 C-3.66654496 6.40992874 -2.1056769 3.20429093 0 0 Z " fill="#117AEA" transform="translate(300,364)"/>
<path d="M0 0 C3.32366742 3.05099404 5.54224226 6.23449516 7.8125 10.125 C8.43769531 11.17945313 9.06289063 12.23390625 9.70703125 13.3203125 C10.13371094 14.20460937 10.56039063 15.08890625 11 16 C10.67 16.66 10.34 17.32 10 18 C9.67 17.01 9.34 16.02 9 15 C8.01 14.67 7.02 14.34 6 14 C6 12.68 6 11.36 6 10 C5.34 10 4.68 10 4 10 C3.67 9.01 3.34 8.02 3 7 C0.99983534 5.79117904 0.99983534 5.79117904 -1 5 C-0.34 5 0.32 5 1 5 C0.67 3.35 0.34 1.7 0 0 Z " fill="#1877E1" transform="translate(452,118)"/>
<path d="M0 0 C1.63051657 3.26103314 2.51444273 5.57911092 3.25 9.0625 C3.44078125 9.91972656 3.6315625 10.77695313 3.828125 11.66015625 C4 14 4 14 2 17 C0.68 16.67 -0.64 16.34 -2 16 C-1.34 16 -0.68 16 0 16 C0 10.72 0 5.44 0 0 Z " fill="#137CE5" transform="translate(484,190)"/>
<path d="M0 0 C0.33 0.66 0.66 1.32 1 2 C0.67 2.99 0.34 3.98 0 5 C-0.66 5 -1.32 5 -2 5 C-2 6.65 -2 8.3 -2 10 C-2.99 10.495 -2.99 10.495 -4 11 C-4.65213292 13.02463255 -4.65213292 13.02463255 -5 15 C-6.32 15.33 -7.64 15.66 -9 16 C-8.06758496 14.08085447 -7.12885525 12.16477614 -6.1875 10.25 C-5.66542969 9.18265625 -5.14335938 8.1153125 -4.60546875 7.015625 C-3.2383308 4.44766758 -1.82284537 2.25529217 0 0 Z " fill="#1C79E0" transform="translate(46,118)"/>
<path d="M0 0 C3.08539112 2.72412697 5.11188908 6.09188781 7.25 9.5625 C7.81460938 10.44711914 7.81460938 10.44711914 8.390625 11.34960938 C9.3260331 12.86105004 10.17093646 14.42771031 11 16 C10.67 16.66 10.34 17.32 10 18 C9.01 17.34 8.02 16.68 7 16 C7 15.01 7 14.02 7 13 C6.34 13 5.68 13 5 13 C5 11.68 5 10.36 5 9 C4.34 9 3.68 9 3 9 C3 8.01 3 7.02 3 6 C2.34 6 1.68 6 1 6 C0.67 4.02 0.34 2.04 0 0 Z " fill="#1D75D7" transform="translate(52,119)"/>
<path d="M0 0 C0.66 0 1.32 0 2 0 C1.67 0.763125 1.34 1.52625 1 2.3125 C-0.17436686 4.99069135 -0.17436686 4.99069135 0 8 C1.43750191 9.68798827 1.43750191 9.68798827 3 11 C-0.76624671 12.25541557 -2.37188934 11.37061958 -6 10 C-4.69063102 7.07909997 -3.24380538 5.24380538 -1 3 C-0.67 2.01 -0.34 1.02 0 0 Z " fill="#2288E3" transform="translate(201,476)"/>
<path d="M0 0 C0.33 0.66 0.66 1.32 1 2 C-0.43359375 4.8203125 -0.43359375 4.8203125 -2.4375 8.125 C-3.09621094 9.22070312 -3.75492188 10.31640625 -4.43359375 11.4453125 C-4.95050781 12.28835938 -5.46742188 13.13140625 -6 14 C-6.66 13.01 -7.32 12.02 -8 11 C-6.79618552 8.50638429 -5.54571278 6.31856917 -4 4 C-3.34 4 -2.68 4 -2 4 C-1.34 2.68 -0.68 1.36 0 0 Z " fill="#1A74E4" transform="translate(257,380)"/>
<path d="M0 0 C0.66 0.33 1.32 0.66 2 1 C1.01 2.485 1.01 2.485 0 4 C-3.625 4.6875 -3.625 4.6875 -7 5 C-7 5.99 -7 6.98 -7 8 C-9.31 8.33 -11.62 8.66 -14 9 C-11.50175511 6.18841591 -8.721524 4.55162169 -5.4375 2.75 C-4.46683594 2.20859375 -3.49617187 1.6671875 -2.49609375 1.109375 C-1.67238281 0.74328125 -0.84867188 0.3771875 0 0 Z " fill="#237CDE" transform="translate(140,33)"/>
<path d="M0 0 C0.99 0 1.98 0 3 0 C3.103125 0.639375 3.20625 1.27875 3.3125 1.9375 C3.539375 2.618125 3.76625 3.29875 4 4 C4.99 4.33 5.98 4.66 7 5 C7 4.01 7 3.02 7 2 C8.32 1.34 9.64 0.68 11 0 C9.68775452 3.93673644 8.08089673 6.22719294 5 9 C4.16396622 7.68921847 3.3312426 6.37632511 2.5 5.0625 C2.0359375 4.33160156 1.571875 3.60070312 1.09375 2.84765625 C0 1 0 1 0 0 Z " fill="#2478D8" transform="translate(442,380)"/>
<path d="M0 0 C0.66 0 1.32 0 2 0 C-1.07517084 10.55808656 -1.07517084 10.55808656 -3 15 C-3.33 15 -3.66 15 -4 15 C-4.125 11.625 -4.125 11.625 -4 8 C-3.34 7.34 -2.68 6.68 -2 6 C-2.66 6 -3.32 6 -4 6 C-4 5.34 -4 4.68 -4 4 C-2.68 4 -1.36 4 0 4 C0 2.68 0 1.36 0 0 Z " fill="#1D79E0" transform="translate(477,327)"/>
<path d="M0 0 C1.2410689 2.4821378 1 4.24140025 1 7 C1.29044914 8.34332728 1.60955794 9.68225804 2 11 C2.66 11 3.32 11 4 11 C4.33 12.98 4.66 14.96 5 17 C1.76787032 13.1907043 -0.8683452 9.50926976 -3 5 C-2.32681681 2.67445808 -1.67512957 1.67512957 0 0 Z " fill="#2578D8" transform="translate(71,86)"/>
<path d="M0 0 C0.99 0.33 1.98 0.66 3 1 C3.6875 3.0625 3.6875 3.0625 4 5 C3.195625 5.28875 2.39125 5.5775 1.5625 5.875 C-1.1326468 6.73262568 -1.1326468 6.73262568 -2 9 C-2.66 9 -3.32 9 -4 9 C-2.94124926 5.59687262 -1.99097846 2.98646769 0 0 Z " fill="#1E7BDD" transform="translate(349,278)"/>
<path d="M0 0 C0.66 0 1.32 0 2 0 C0.23570801 4.97209562 -2.3939166 9.43438061 -5 14 C-5.33 14 -5.66 14 -6 14 C-6 12.35 -6 10.7 -6 9 C-5.34 9 -4.68 9 -4 9 C-3.7834375 8.071875 -3.7834375 8.071875 -3.5625 7.125 C-3 5 -3 5 -2 3 C-1.34 3 -0.68 3 0 3 C0 2.01 0 1.02 0 0 Z " fill="#1A78E3" transform="translate(233,420)"/>
<path d="M0 0 C7 8.44827586 7 8.44827586 7 12 C6.34 12 5.68 12 5 12 C4.34 11.34 3.68 10.68 3 10 C2.34 9.67 1.68 9.34 1 9 C1.33 7.35 1.66 5.7 2 4 C1.34 4 0.68 4 0 4 C0 2.68 0 1.36 0 0 Z " fill="#1777DF" transform="translate(113,220)"/>
<path d="M0 0 C0.99 0 1.98 0 3 0 C3 0.66 3 1.32 3 2 C3.66 2.33 4.32 2.66 5 3 C5.69937532 4.31647119 6.36729133 5.65022151 7 7 C7.33 7.33 7.66 7.66 8 8 C8.04063832 9.66617115 8.042721 11.33388095 8 13 C4.48901975 8.98745115 2.23462006 4.79016959 0 0 Z " fill="#1E7AE3" transform="translate(76,103)"/>
<path d="M0 0 C0.33 0.99 0.66 1.98 1 3 C0.01 4.485 0.01 4.485 -1 6 C-1.07905064 8.33199388 -1.08798769 10.66832622 -1 13 C-1.99 13.495 -1.99 13.495 -3 14 C-3 13.34 -3 12.68 -3 12 C-3.99 12 -4.98 12 -6 12 C-4.43358249 7.69235185 -2.31663844 3.93828536 0 0 Z " fill="#1673DC" transform="translate(255,442)"/>
<path d="M0 0 C5.03526537 4.28930013 8.66008864 10.52130772 10 17 C7.04185281 14.38772848 5.28123892 11.33429693 3.3125 7.9375 C2.37857422 6.34228516 2.37857422 6.34228516 1.42578125 4.71484375 C0 2 0 2 0 0 Z " fill="#2576D5" transform="translate(382,275)"/>
<path d="M0 0 C2.30874711 2.16614803 4.05290181 4.39206608 5.75 7.0625 C6.19859375 7.75472656 6.6471875 8.44695312 7.109375 9.16015625 C7.40328125 9.76730469 7.6971875 10.37445313 8 11 C7.67 11.66 7.34 12.32 7 13 C6.01 12.67 5.02 12.34 4 12 C3.67 10.02 3.34 8.04 3 6 C2.34 6 1.68 6 1 6 C0.67 4.02 0.34 2.04 0 0 Z " fill="#1874E1" transform="translate(100,199)"/>
<path d="M0 0 C0.33 0.66 0.66 1.32 1 2 C-0.21484375 4.3828125 -0.21484375 4.3828125 -1.9375 7.125 C-2.50339844 8.03507813 -3.06929687 8.94515625 -3.65234375 9.8828125 C-4.09707031 10.58148438 -4.54179687 11.28015625 -5 12 C-5.33 11.34 -5.66 10.68 -6 10 C-5.67 9.01 -5.34 8.02 -5 7 C-5.66 7 -6.32 7 -7 7 C-6.67 6.01 -6.34 5.02 -6 4 C-4.66923011 3.65657551 -3.33568021 3.32380126 -2 3 C-1.34 2.01 -0.68 1.02 0 0 Z " fill="#1D7AE1" transform="translate(160,200)"/>
<path d="M0 0 C-6.03076923 4.92307692 -6.03076923 4.92307692 -10.9375 5.3125 C-11.948125 5.209375 -12.95875 5.10625 -14 5 C-10.63156097 2.05261585 -4.40469071 -2.20234535 0 0 Z " fill="#1D7ADF" transform="translate(165,24)"/>
<path d="M0 0 C3.28465896 2.79196011 5.01321958 6.23196817 7 10 C7 10.66 7 11.32 7 12 C6.01 11.67 5.02 11.34 4 11 C4 9.68 4 8.36 4 7 C3.34 7 2.68 7 2 7 C2 6.34 2 5.68 2 5 C1.01 4.67 0.02 4.34 -1 4 C-0.67 2.68 -0.34 1.36 0 0 Z " fill="#1973DE" transform="translate(361,297)"/>
<path d="M0 0 C0.99 0.66 1.98 1.32 3 2 C2.67 2.66 2.34 3.32 2 4 C2.639375 4.103125 3.27875 4.20625 3.9375 4.3125 C4.618125 4.539375 5.29875 4.76625 6 5 C6.33 5.99 6.66 6.98 7 8 C2.56541027 6.6062718 0.12621626 4.39417765 -3 1 C-2.01 0.67 -1.02 0.34 0 0 Z " fill="#1B7BE0" transform="translate(109,443)"/>
<path d="M0 0 C0.33 0.66 0.66 1.32 1 2 C0.00390625 4.1640625 0.00390625 4.1640625 -1.4375 6.625 C-1.91058594 7.44226563 -2.38367188 8.25953125 -2.87109375 9.1015625 C-3.24363281 9.72804688 -3.61617188 10.35453125 -4 11 C-4.33 11 -4.66 11 -5 11 C-5.625 8.125 -5.625 8.125 -6 5 C-5.34 4.34 -4.68 3.68 -4 3 C-3.01 3 -2.02 3 -1 3 C-0.67 2.01 -0.34 1.02 0 0 Z " fill="#1D77DE" transform="translate(264,368)"/>
<path d="M0 0 C1.32 0.33 2.64 0.66 4 1 C4.12375 1.763125 4.2475 2.52625 4.375 3.3125 C4.88102792 6.20267136 4.88102792 6.20267136 7 9 C6.67 9.99 6.34 10.98 6 12 C4.99466333 10.37829621 3.99588093 8.75252763 3 7.125 C2.443125 6.22007812 1.88625 5.31515625 1.3125 4.3828125 C0 2 0 2 0 0 Z " fill="#1C79DF" transform="translate(408,320)"/>
<path d="M0 0 C2.44710376 1.86977097 2.96931493 2.82502483 3.51171875 5.91796875 C3.56972656 6.99691406 3.62773437 8.07585937 3.6875 9.1875 C3.75324219 10.27417969 3.81898437 11.36085938 3.88671875 12.48046875 C3.92410156 13.31191406 3.96148438 14.14335937 4 15 C2.25674553 12.3851183 1.58412043 10.9946567 0.875 8.0625 C0.70742187 7.39347656 0.53984375 6.72445313 0.3671875 6.03515625 C0 4 0 4 0 0 Z " fill="#247BDE" transform="translate(14,304)"/>
<path d="M0 0 C3 1 3 1 4.421875 3.1796875 C4.86015625 4.06914062 5.2984375 4.95859375 5.75 5.875 C6.19859375 6.75929687 6.6471875 7.64359375 7.109375 8.5546875 C8 11 8 11 7 14 C4.69 9.38 2.38 4.76 0 0 Z " fill="#2179D7" transform="translate(338,199)"/>
<path d="M0 0 C1.52519276 0.08937803 3.04681929 0.24537146 4.5625 0.4375 C5.80193359 0.59025391 5.80193359 0.59025391 7.06640625 0.74609375 C7.70449219 0.82988281 8.34257812 0.91367187 9 1 C9 1.33 9 1.66 9 2 C1.57142857 4.14285714 1.57142857 4.14285714 -2 5 C-1.34 4.67 -0.68 4.34 0 4 C-0.33 3.01 -0.66 2.02 -1 1 C-0.67 0.67 -0.34 0.34 0 0 Z " fill="#0F77E9" transform="translate(319,19)"/>
<path d="M0 0 C0.33 0 0.66 0 1 0 C0.67 2.31 0.34 4.62 0 7 C-0.99 7.33 -1.98 7.66 -3 8 C-3 8.99 -3 9.98 -3 11 C-3.66 11 -4.32 11 -5 11 C-3.77782954 6.95743617 -2.37245704 3.50711041 0 0 Z " fill="#1E79DA" transform="translate(236,475)"/>
<path d="M0 0 C0 4.24645065 -1.81750806 6.38524772 -4 10 C-4.98726527 7.33438378 -5.0275526 6.09873015 -4.25 3.3125 C-3 1 -3 1 0 0 Z " fill="#1C77DE" transform="translate(240,410)"/>
<path d="M0 0 C2.6875 1.4375 2.6875 1.4375 5 3 C3.3125 4.125 3.3125 4.125 1 5 C-1.75 4.125 -1.75 4.125 -4 3 C-3 1 -3 1 0 0 Z " fill="#0E77EB" transform="translate(397,58)"/>
<path d="M0 0 C0.33 0.66 0.66 1.32 1 2 C-0.21484375 4.3828125 -0.21484375 4.3828125 -1.9375 7.125 C-2.50339844 8.03507812 -3.06929687 8.94515625 -3.65234375 9.8828125 C-4.09707031 10.58148438 -4.54179687 11.28015625 -5 12 C-5.33 10.68 -5.66 9.36 -6 8 C-5.34 8 -4.68 8 -4 8 C-4 6.35 -4 4.7 -4 3 C-3.01 3 -2.02 3 -1 3 C-0.67 2.01 -0.34 1.02 0 0 Z " fill="#217AD7" transform="translate(247,52)"/>
<path d="M0 0 C1.32 0.33 2.64 0.66 4 1 C2.3811004 2.03048037 0.75467511 3.04914678 -0.875 4.0625 C-1.77992188 4.63097656 -2.68484375 5.19945312 -3.6171875 5.78515625 C-4.40351563 6.18605469 -5.18984375 6.58695312 -6 7 C-6.66 6.67 -7.32 6.34 -8 6 C-6 3 -6 3 -2.875 2.3125 C-1.92625 2.209375 -0.9775 2.10625 0 2 C0 1.34 0 0.68 0 0 Z " fill="#217DDE" transform="translate(373,455)"/>
<path d="M0 0 C4.42857143 5.14285714 4.42857143 5.14285714 5 9 C2.525 8.01 2.525 8.01 0 7 C0 4.69 0 2.38 0 0 Z " fill="#1779E4" transform="translate(401,366)"/>
<path d="M0 0 C1.32 0 2.64 0 4 0 C4.66666667 3.33333333 5.33333333 6.66666667 6 10 C3.38275905 7.63202009 1.67138271 5.10399646 0 2 C0 1.34 0 0.68 0 0 Z " fill="#227ADC" transform="translate(424,348)"/>
<path d="M0 0 C2.61500768 2.36595933 4.38999603 4.86049226 6 8 C5.67 8.66 5.34 9.32 5 10 C3.5 8.625 3.5 8.625 2 7 C2 6.34 2 5.68 2 5 C1.34 5 0.68 5 0 5 C0 3.35 0 1.7 0 0 Z " fill="#1B77D8" transform="translate(132,252)"/>
<path d="M0 0 C0.33 1.32 0.66 2.64 1 4 C1.99 4 2.98 4 4 4 C4.33 6.31 4.66 8.62 5 11 C2.38114512 8.63055987 0.58133449 6.16266898 -1 3 C-0.67 2.01 -0.34 1.02 0 0 Z " fill="#1F7BDC" transform="translate(107,151)"/>
<path d="M0 0 C0.33 0.66 0.66 1.32 1 2 C0.0625 4.625 0.0625 4.625 -1 7 C-1.99 6.67 -2.98 6.34 -4 6 C-4 6.66 -4 7.32 -4 8 C-4.99 8.33 -5.98 8.66 -7 9 C-5.44499019 5.18315774 -2.96404505 2.80804268 0 0 Z " fill="#1E7CE5" transform="translate(79,77)"/>
<path d="M0 0 C2.97 0 5.94 0 9 0 C9.66 1.32 10.32 2.64 11 4 C9.53984709 3.71758359 8.08190207 3.42373386 6.625 3.125 C5.81289062 2.96257812 5.00078125 2.80015625 4.1640625 2.6328125 C2 2 2 2 0 0 Z " fill="#217CDB" transform="translate(162,475)"/>
<path d="M0 0 C1.32 0 2.64 0 4 0 C5.703125 1.75 5.703125 1.75 7.25 4 C8.03117187 5.11375 8.03117187 5.11375 8.828125 6.25 C9.21484375 6.8275 9.6015625 7.405 10 8 C6.06988668 6.16309921 3.23843209 3.87042844 0 1 C0 0.67 0 0.34 0 0 Z " fill="#2376DF" transform="translate(86,428)"/>
<path d="M0 0 C0.12375 0.639375 0.2475 1.27875 0.375 1.9375 C0.684375 2.9584375 0.684375 2.9584375 1 4 C1.66 4.33 2.32 4.66 3 5 C2.360625 5.28875 1.72125 5.5775 1.0625 5.875 C-1.15206079 6.82823451 -1.15206079 6.82823451 -2 9 C-2.66 9 -3.32 9 -4 9 C-2.94124926 5.59687262 -1.99097846 2.98646769 0 0 Z " fill="#1879E0" transform="translate(309,348)"/>
<path d="M0 0 C0.66 0 1.32 0 2 0 C5.25494123 3.51858133 7.55946315 7.15409462 8 12 C4.02502456 8.59287819 2.13206212 4.67239145 0 0 Z " fill="#267AD6" transform="translate(133,198)"/>
<path d="M0 0 C0.33 0.66 0.66 1.32 1 2 C-0.25 5.5625 -0.25 5.5625 -2 9 C-2.99 9.33 -3.98 9.66 -5 10 C-3.66511872 6.40608886 -2.03977277 3.24509304 0 0 Z " fill="#1F7BDC" transform="translate(245,113)"/>
<path d="M0 0 C0.33 0 0.66 0 1 0 C1.3125 2.1875 1.3125 2.1875 1 5 C-1.5 7.8125 -1.5 7.8125 -4 10 C-4 5.75354935 -2.18249194 3.61475228 0 0 Z " fill="#1979D6" transform="translate(256,94)"/>
<path d="M0 0 C4.43458973 1.3937282 6.87378374 3.60582235 10 7 C8.35 6.67 6.7 6.34 5 6 C5 5.34 5 4.68 5 4 C3.35 3.67 1.7 3.34 0 3 C0 2.01 0 1.02 0 0 Z " fill="#1F77D7" transform="translate(384,49)"/>
<path d="M0 0 C0.66 0.33 1.32 0.66 2 1 C-1.17320782 4.53586014 -3.16743695 6.58578031 -8 7 C-5.42215154 4.35247996 -3.08351902 2.05567935 0 0 Z " fill="#207BDD" transform="translate(116,47)"/>
<path d="M0 0 C0.33 0.66 0.66 1.32 1 2 C0.22265625 3.7265625 0.22265625 3.7265625 -0.9375 5.625 C-1.618125 6.73875 -2.29875 7.8525 -3 9 C-3.66 7.68 -4.32 6.36 -5 5 C-3.35 3.35 -1.7 1.7 0 0 Z " fill="#1972E3" transform="translate(223,439)"/>
<path d="M0 0 C0.33 0.66 0.66 1.32 1 2 C0.06421005 4.35981813 -0.93347808 6.69631264 -2 9 C-2.66 9 -3.32 9 -4 9 C-4.33 9.99 -4.66 10.98 -5 12 C-5.33 11.34 -5.66 10.68 -6 10 C-4.78515625 7.6171875 -4.78515625 7.6171875 -3.0625 4.875 C-2.21365234 3.50988281 -2.21365234 3.50988281 -1.34765625 2.1171875 C-0.90292969 1.41851562 -0.45820313 0.71984375 0 0 Z " fill="#1B6DDB" transform="translate(262,430)"/>
<path d="M0 0 C0.33 0.66 0.66 1.32 1 2 C0.00390625 3.9453125 0.00390625 3.9453125 -1.4375 6.125 C-1.91058594 6.84945312 -2.38367188 7.57390625 -2.87109375 8.3203125 C-3.24363281 8.87460938 -3.61617187 9.42890625 -4 10 C-5.33332095 7.3333581 -4.67102033 5.83319697 -4 3 C-3.01 3 -2.02 3 -1 3 C-0.67 2.01 -0.34 1.02 0 0 Z " fill="#1B73E0" transform="translate(183,161)"/>
<path d="M0 0 C2.74277578 3.19990508 4.6302836 6.00499382 6 10 C3 9 3 9 1.3125 6.6875 C0 4 0 4 0 0 Z " fill="#2176D8" transform="translate(66,142)"/>
<path d="M0 0 C0.33 0.66 0.66 1.32 1 2 C0.22265625 3.7265625 0.22265625 3.7265625 -0.9375 5.625 C-1.618125 6.73875 -2.29875 7.8525 -3 9 C-3.33 9 -3.66 9 -4 9 C-3.67 6.36 -3.34 3.72 -3 1 C-2.01 0.67 -1.02 0.34 0 0 Z " fill="#1B7ADD" transform="translate(197,137)"/>
<path d="M0 0 C4.29 0 8.58 0 13 0 C13 0.99 13 1.98 13 3 C12.34 3.66 11.68 4.32 11 5 C11 3.68 11 2.36 11 1 C7.37 1 3.74 1 0 1 C0 0.67 0 0.34 0 0 Z " fill="#307AD1" transform="translate(260,8)"/>
<path d="M0 0 C0.33 0.66 0.66 1.32 1 2 C0.00390625 3.9453125 0.00390625 3.9453125 -1.4375 6.125 C-1.91058594 6.84945313 -2.38367188 7.57390625 -2.87109375 8.3203125 C-3.24363281 8.87460937 -3.61617188 9.42890625 -4 10 C-5 8 -5 8 -4.25 5 C-3 2 -3 2 0 0 Z " fill="#237BDB" transform="translate(458,370)"/>
<path d="M0 0 C1 3 1 3 0.22265625 5.04296875 C-0.16019531 5.75066406 -0.54304688 6.45835937 -0.9375 7.1875 C-1.31777344 7.90292969 -1.69804687 8.61835938 -2.08984375 9.35546875 C-2.54037109 10.16951172 -2.54037109 10.16951172 -3 11 C-3.33 11 -3.66 11 -4 11 C-4.56638908 6.18569279 -2.82561627 3.79692186 0 0 Z " fill="#2376DC" transform="translate(472,342)"/>
<path d="M0 0 C4 4.75 4 4.75 4 7 C2.35 6.67 0.7 6.34 -1 6 C-0.67 4.02 -0.34 2.04 0 0 Z " fill="#1678E2" transform="translate(163,303)"/>
<path d="M0 0 C1.485 0.99 1.485 0.99 3 2 C3.1875 5.625 3.1875 5.625 3 9 C1.5 7.875 1.5 7.875 0 6 C-0.1875 2.8125 -0.1875 2.8125 0 0 Z " fill="#137AE9" transform="translate(124,178)"/>
<path d="M0 0 C1.65 0 3.3 0 5 0 C3.84826645 2.46800047 2.95216435 4.04783565 1 6 C0.67 4.02 0.34 2.04 0 0 Z " fill="#0C79EE" transform="translate(327,177)"/>
<path d="M0 0 C1.32 0 2.64 0 4 0 C4.33 1.98 4.66 3.96 5 6 C3.0625 5.25 3.0625 5.25 1 4 C0.25 1.875 0.25 1.875 0 0 Z " fill="#147BE5" transform="translate(112,162)"/>
<path d="M0 0 C0.8125 1.625 0.8125 1.625 1 4 C-0.46818136 6.24609835 -2.15852858 8.02378677 -4 10 C-4 5.75354935 -2.18249194 3.61475228 0 0 Z " fill="#2178D9" transform="translate(288,40)"/>
<path d="M0 0 C0.33 0.99 0.66 1.98 1 3 C0.67 3.66 0.34 4.32 0 5 C-1.98 5 -3.96 5 -6 5 C-2.25 1.125 -2.25 1.125 0 0 Z " fill="#197CE4" transform="translate(124,42)"/>
<path d="M0 0 C1.32 0 2.64 0 4 0 C2.81323934 4.10801767 2.10551666 5.89448334 -1 9 C-0.67 6.03 -0.34 3.06 0 0 Z " fill="#1C7BE1" transform="translate(204,467)"/>
<path d="M0 0 C0.99 0.33 1.98 0.66 3 1 C1.68 3.31 0.36 5.62 -1 8 C-2.3418344 5.31633121 -1.73004953 3.84719317 -1 1 C-0.67 0.67 -0.34 0.34 0 0 Z " fill="#1A79E0" transform="translate(210,459)"/>
<path d="M0 0 C0.66 0 1.32 0 2 0 C2 0.66 2 1.32 2 2 C3.32 1.67 4.64 1.34 6 1 C6 2.98 6 4.96 6 7 C1.125 3.375 1.125 3.375 0 0 Z " fill="#1C7ADF" transform="translate(58,397)"/>
<path d="M0 0 C0.33 0 0.66 0 1 0 C0.38461538 6.52307692 0.38461538 6.52307692 -1.5625 8.9375 C-2.036875 9.288125 -2.51125 9.63875 -3 10 C-3 8.02 -3 6.04 -3 4 C-2.01 4 -1.02 4 0 4 C0 2.68 0 1.36 0 0 Z " fill="#1B7BE4" transform="translate(272,351)"/>
<path d="M0 0 C0.66 0 1.32 0 2 0 C2.268125 0.639375 2.53625 1.27875 2.8125 1.9375 C3.88667752 4.33131686 3.88667752 4.33131686 7 5 C6.67 5.99 6.34 6.98 6 8 C5.01 7.67 4.02 7.34 3 7 C1.3125 3.4375 1.3125 3.4375 0 0 Z " fill="#2D7BD4" transform="translate(143,214)"/>
<path d="M0 0 C2.98170547 1.98780365 4.81831749 3.56237816 6 7 C5.67 7.99 5.34 8.98 5 10 C4.16121545 8.71186658 3.32913217 7.41936744 2.5 6.125 C2.0359375 5.40570313 1.571875 4.68640625 1.09375 3.9453125 C0 2 0 2 0 0 Z " fill="#227CDB" transform="translate(127,187)"/>
<path d="M0 0 C2.76223278 2.76223278 2.57856291 5.20706617 3 9 C2.34 9 1.68 9 1 9 C-0.4783226 6.04335481 -0.06032783 3.25770263 0 0 Z " fill="#1A7BE1" transform="translate(481,181)"/>
<path d="M0 0 C2.375 0.6875 2.375 0.6875 5 2 C6.3125 4.625 6.3125 4.625 7 7 C4.525 6.01 4.525 6.01 2 5 C2 4.34 2 3.68 2 3 C1.34 2.67 0.68 2.34 0 2 C0 1.34 0 0.68 0 0 Z " fill="#1079E8" transform="translate(89,185)"/>
<path d="M0 0 C2.61500768 2.36595933 4.38999603 4.86049226 6 8 C5.67 8.66 5.34 9.32 5 10 C4.67 9.01 4.34 8.02 4 7 C3.01 6.67 2.02 6.34 1 6 C0.67 4.02 0.34 2.04 0 0 Z " fill="#2577D4" transform="translate(457,126)"/>
<path d="M0 0 C0 1.32 0 2.64 0 4 C-2.76264289 4.59732819 -5.16032769 5 -8 5 C-2.25 0 -2.25 0 0 0 Z " fill="#1B7DE3" transform="translate(108,54)"/>
<path d="M0 0 C3.99500618 1.3697164 6.80009492 3.25722422 10 6 C8.68 6 7.36 6 6 6 C6 5.34 6 4.68 6 4 C4.02 3.34 2.04 2.68 0 2 C0 1.34 0 0.68 0 0 Z " fill="#1A79DC" transform="translate(368,39)"/>
<path d="M0 0 C1.125 3.75 1.125 3.75 0 6 C-0.66 6 -1.32 6 -2 6 C-2 6.99 -2 7.98 -2 9 C-2.66 9 -3.32 9 -4 9 C-2.94124926 5.59687262 -1.99097846 2.98646769 0 0 Z " fill="#2276D6" transform="translate(243,463)"/>
<path d="M0 0 C-1 2 -1 2 -3 3 C-5.625 2.0625 -5.625 2.0625 -8 1 C-8 0.67 -8 0.34 -8 0 C-4.71303767 -0.79953138 -3.28976808 -1.09658936 0 0 Z " fill="#0A77F0" transform="translate(77,411)"/>
<path d="M0 0 C1.5 1.3125 1.5 1.3125 3 3 C3 3.99 3 4.98 3 6 C1.68 6.33 0.36 6.66 -1 7 C-0.67 4.69 -0.34 2.38 0 0 Z " fill="#1379E8" transform="translate(413,387)"/>
<path d="M0 0 C4 4.75 4 4.75 4 7 C1.525 6.01 1.525 6.01 -1 5 C-0.67 3.35 -0.34 1.7 0 0 Z " fill="#1778E1" transform="translate(386,340)"/>
</svg>
