<?xml version="1.0" encoding="UTF-8"?>
<svg version="1.1" xmlns="http://www.w3.org/2000/svg" width="500" height="123">
<path d="M0 0 C36.03777336 0 36.03777336 0 43.4375 5.96484375 C43.953125 6.61582031 44.46875 7.26679687 45 7.9375 C45.53625 8.58589844 46.0725 9.23429687 46.625 9.90234375 C50.79318617 16.26119594 50.58447136 22.61191669 50 30 C48.84722548 35.05239456 45.93249207 39.63207362 42 43 C34.25790725 47.56958106 26.36436299 48.16635408 17.5625 48.0625 C15.066875 48.041875 12.57125 48.02125 10 48 C10 55.26 10 62.52 10 70 C6.7 70 3.4 70 0 70 C0 46.9 0 23.8 0 0 Z M10 9 C10 18.57 10 28.14 10 38 C13.34125 38.0825 16.6825 38.165 20.125 38.25 C21.68758545 38.30462402 21.68758545 38.30462402 23.28173828 38.36035156 C29.03826195 38.42900024 32.52067768 37.99092269 37 34 C39.32852733 31.63708514 39.93488663 30.46409232 40.3984375 27.16015625 C40.39070313 26.13792969 40.38296875 25.11570312 40.375 24.0625 C40.38273437 23.04285156 40.39046875 22.02320313 40.3984375 20.97265625 C39.94649092 17.60078028 38.99515222 15.73197102 37 13 C32.67535983 9.89513013 28.9343098 8.86475493 23.671875 8.90234375 C22.5905127 8.90609009 22.5905127 8.90609009 21.48730469 8.90991211 C20.13233887 8.92356812 20.13233887 8.92356812 18.75 8.9375 C14.41875 8.9684375 14.41875 8.9684375 10 9 Z " fill="#010101" transform="translate(137,26)"/>
<path d="M0 0 C3.90475614 3.18302396 7.04522524 6.53411323 8.6484375 11.34375 C8.7338465 14.29339113 8.76426677 17.21878019 8.74609375 20.16796875 C8.7446788 21.02936966 8.74326385 21.89077057 8.74180603 22.77827454 C8.7362089 25.52930169 8.72365696 28.28024744 8.7109375 31.03125 C8.70592213 32.8964832 8.70135929 34.76171767 8.69726562 36.62695312 C8.68624042 41.19925011 8.66897777 45.77148625 8.6484375 50.34375 C6.0084375 50.34375 3.3684375 50.34375 0.6484375 50.34375 C0.3184375 48.69375 -0.0115625 47.04375 -0.3515625 45.34375 C-0.89425781 45.69308594 -1.43695313 46.04242188 -1.99609375 46.40234375 C-2.71152344 46.85738281 -3.42695313 47.31242187 -4.1640625 47.78125 C-5.22560547 48.45994141 -5.22560547 48.45994141 -6.30859375 49.15234375 C-12.30633189 52.65006867 -19.64393416 51.84682213 -26.3515625 51.34375 C-31.79067694 49.85446867 -35.28850585 47.12211838 -38.3515625 42.34375 C-40.0277565 37.31516801 -39.95798985 33.00344589 -38.1640625 28.09375 C-34.80509088 22.99737927 -31.13318884 20.96964005 -25.3515625 19.34375 C-22.37548828 19.11669922 -22.37548828 19.11669922 -19.296875 19.1484375 C-17.63398438 19.15810547 -17.63398438 19.15810547 -15.9375 19.16796875 C-14.79539062 19.18472656 -13.65328125 19.20148438 -12.4765625 19.21875 C-10.72859375 19.23228516 -10.72859375 19.23228516 -8.9453125 19.24609375 C-6.08051673 19.26957568 -3.21614715 19.30241859 -0.3515625 19.34375 C-0.81233163 17.88370895 -1.27974541 16.42576361 -1.75 14.96875 C-2.00958496 14.15664063 -2.26916992 13.34453125 -2.53662109 12.5078125 C-3.25989026 10.24093211 -3.25989026 10.24093211 -4.9765625 8.34375 C-10.18818526 6.14938252 -14.74779915 5.87050835 -20.1640625 7.46875 C-23.46965039 9.11517947 -23.46965039 9.11517947 -25.2265625 12.03125 C-27.3515625 14.34375 -27.3515625 14.34375 -29.59375 14.6640625 C-31.86649103 14.65698231 -34.08985631 14.56122175 -36.3515625 14.34375 C-36.21422045 8.85006813 -33.92484721 5.93978997 -30.28125 2.11328125 C-22.72725114 -4.81376629 -8.68630555 -5.31040514 0 0 Z M-29.3515625 31.34375 C-30.6138212 34.54147205 -30.56010252 35.84557107 -29.2265625 39.03125 C-27.0046764 41.77157619 -25.75965103 42.49172787 -22.3515625 43.34375 C-16.82284763 43.86532687 -12.15566489 43.11534753 -7.3515625 40.34375 C-3.20063603 36.70495082 -1.33035246 33.76910651 -0.3515625 28.34375 C-4.43476134 28.2566358 -8.51772114 28.20331952 -12.6015625 28.15625 C-14.33986328 28.11854492 -14.33986328 28.11854492 -16.11328125 28.08007812 C-17.22832031 28.07041016 -18.34335937 28.06074219 -19.4921875 28.05078125 C-20.51860352 28.0350708 -21.54501953 28.01936035 -22.60253906 28.00317383 C-25.75637963 28.39390274 -27.08199886 29.15767435 -29.3515625 31.34375 Z " fill="#020202" transform="translate(483.3515625,45.65625)"/>
<path d="M0 0 C5.22029496 4.10166032 8.85630265 9.07429503 10.109375 15.7109375 C10.87223583 24.97424757 10.85665889 32.98033398 5.109375 40.7109375 C-0.17437051 46.60965576 -6.9868214 49.99780479 -14.86328125 50.94921875 C-23.21469067 51.24581086 -30.74243089 48.76390889 -37.328125 43.5859375 C-43.46403775 37.62641649 -45.10143256 31.03501818 -45.390625 22.6484375 C-45.14059777 14.43325702 -42.78181113 7.60212363 -36.890625 1.7109375 C-26.34301739 -5.96004985 -11.16529821 -7.61270333 0 0 Z M-31.640625 10.5859375 C-35.43116461 15.85057584 -36.68457269 20.19808535 -35.890625 26.7109375 C-34.02891558 32.49203517 -31.49863883 36.67402816 -26.10546875 39.71875 C-20.26462763 42.29661626 -14.85840007 42.22619018 -8.90625 39.953125 C-3.53753912 37.22288314 -0.76233847 33.32607791 1.109375 27.7109375 C1.71099473 21.74101864 1.19399218 16.98463784 -1.890625 11.7109375 C-5.58860356 7.83811362 -8.85836599 4.95846885 -14.37890625 4.5078125 C-21.86691932 4.38353013 -26.2687352 4.9698709 -31.640625 10.5859375 Z " fill="#020202" transform="translate(383.890625,47.2890625)"/>
<path d="M0 0 C-1.29959679 4.31044902 -2.95938313 7.93230522 -5.2734375 11.7890625 C-5.92828125 12.88694092 -6.583125 13.98481934 -7.2578125 15.1159668 C-7.96341072 16.28572353 -8.66914247 17.45539972 -9.375 18.625 C-10.09426317 19.82627166 -10.81300887 21.02785331 -11.53125 22.22973633 C-13.33672732 25.24805511 -15.14877632 28.26236674 -16.96276855 31.27557373 C-18.55470128 33.92220638 -20.14051115 36.57249611 -21.7265625 39.22265625 C-24.4784445 43.81868969 -27.23697506 48.41065744 -30 53 C-33.41360942 49.88089806 -35.76789807 46.42998587 -38.109375 42.484375 C-38.48104797 41.86854553 -38.85272095 41.25271606 -39.23565674 40.6182251 C-40.41257208 38.66537747 -41.58137607 36.70781825 -42.75 34.75 C-43.5502489 33.41895063 -44.35102478 32.08821794 -45.15234375 30.7578125 C-47.10767922 27.50884089 -49.05575854 24.25562155 -51 21 C-45.00093385 10.59404708 -33.98610214 4.68828016 -22.75 1.25 C-15.72871702 -0.51535115 -6.98042898 -2.32680966 0 0 Z " fill="#0279FB" transform="translate(65,2)"/>
<path d="M0 0 C4.04820811 1.3494027 4.4453773 3.08537444 6.46875 6.79296875 C6.79033081 7.37661697 7.11191162 7.9602652 7.4432373 8.56159973 C8.470996 10.43221472 9.48545082 12.30969406 10.5 14.1875 C11.18276024 15.43339984 11.86634506 16.67884818 12.55078125 17.92382812 C15.46215874 23.23737467 18.31514838 28.56746633 21 34 C9.92571194 45.2529056 -4.09208308 53.01426226 -20.10766602 53.19555664 C-23.07393811 53.18406621 -26.03580782 53.108007 -29 53 C-27.72552876 48.81931899 -26.15318682 45.23255073 -23.9453125 41.46484375 C-23.3356665 40.41731934 -22.72602051 39.36979492 -22.09790039 38.29052734 C-21.44684326 37.18402832 -20.79578613 36.0775293 -20.125 34.9375 C-19.11355813 33.20251364 -18.1021235 31.46752289 -17.09150696 29.73205566 C-16.40673086 28.55676172 -15.72125215 27.38187687 -15.03507996 26.20739746 C-11.67275363 20.45160405 -8.36304919 14.66636769 -5.0625 8.875 C-4.54896973 7.97515381 -4.03543945 7.07530762 -3.50634766 6.14819336 C-2.33700772 4.09911258 -1.16820591 2.04972742 0 0 Z " fill="#047AF9" transform="translate(83,68)"/>
<path d="M0 0 C12.87 0 25.74 0 39 0 C43.8286966 19.31478639 41.00130521 36.01148156 31 53 C30.34 53 29.68 53 29 53 C28.44054687 51.9790625 27.88109375 50.958125 27.3046875 49.90625 C21.65880651 39.65158444 15.84040717 29.50783302 9.91162109 19.4140625 C7.27805365 14.92640952 4.65185846 10.43467804 2.08203125 5.91015625 C1.67831299 5.20125244 1.27459473 4.49234863 0.85864258 3.76196289 C0 2 0 2 0 0 Z " fill="#037AFB" transform="translate(78,43)"/>
<path d="M0 0 C20.13 0 40.26 0 61 0 C53.00545852 15.98908297 53.00545852 15.98908297 48.625 23.1875 C47.7604511 24.61693852 46.89835806 26.04786608 46.0390625 27.48046875 C45.48532959 28.39155396 45.48532959 28.39155396 44.92041016 29.32104492 C43.84755709 31.15941699 43.84755709 31.15941699 43 34 C26.63357038 31.46038161 14.09965022 22.11152612 4.40625 9.01171875 C-0 2.70833333 -0 2.70833333 0 0 Z " fill="#037AFB" transform="translate(5,86)"/>
<path d="M0 0 C4.06894561 1.3563152 5.07127308 3.9926759 7.09765625 7.53515625 C7.48870041 8.20158142 7.87974457 8.86800659 8.28263855 9.55462646 C9.55082842 11.71922416 10.80677901 13.89064933 12.0625 16.0625 C13.773715 18.99691892 15.49023848 21.9282168 17.20703125 24.859375 C17.62479828 25.57458817 18.04256531 26.28980133 18.47299194 27.02668762 C21.98075221 33.01491006 25.629221 38.90623019 29.49633789 44.67016602 C30.578125 46.33203125 30.578125 46.33203125 32 49 C31.67 49.99 31.34 50.98 31 52 C18.46 51.67 5.92 51.34 -7 51 C-11.78570538 36.64288387 -10.32916098 19.73380583 -3.62109375 6.22265625 C-2.47407014 4.10180632 -1.28554261 2.03895488 0 0 Z " fill="#037AFB" transform="translate(9,28)"/>
<path d="M0 0 C16.38868559 3.08306617 28.60731263 11.32734581 38 25 C39.32 27.64 40.64 30.28 42 33 C21.87 33 1.74 33 -19 33 C-13.375 21.75 -13.375 21.75 -10.44921875 16.9921875 C-9.83369141 15.98671875 -9.21816406 14.98125 -8.58398438 13.9453125 C-7.64522461 12.42550781 -7.64522461 12.42550781 -6.6875 10.875 C-6.04232422 9.823125 -5.39714844 8.77125 -4.73242188 7.6875 C-3.15858685 5.12273181 -1.5810685 2.56031299 0 0 Z " fill="#017AFC" transform="translate(72,3)"/>
<path d="M0 0 C5.36536315 3.58859801 9.89542655 8.75864032 11.54296875 15.07421875 C11.62546875 15.77546875 11.70796875 16.47671875 11.79296875 17.19921875 C8.39381826 17.54951288 5.1788565 17.72792993 1.79296875 17.19921875 C-0.58203125 14.38671875 -0.58203125 14.38671875 -2.20703125 11.19921875 C-6.91032927 7.06601746 -11.35745671 6.8416787 -17.4140625 6.9296875 C-21.81875107 7.35475535 -23.74847127 8.37590448 -27.20703125 11.19921875 C-30.87344132 15.93499842 -31.86269682 20.82646482 -31.58984375 26.73828125 C-30.73508439 32.23316282 -28.61515594 35.92208241 -24.51953125 39.63671875 C-18.98146329 42.24901496 -13.86639331 43.00987502 -7.95703125 41.13671875 C-2.72181917 38.87368883 -0.30899463 34.85216382 2.79296875 30.19921875 C4.95703125 29.90625 4.95703125 29.90625 7.41796875 30.01171875 C8.23523438 30.03878906 9.0525 30.06585938 9.89453125 30.09375 C10.52101563 30.12855469 11.1475 30.16335937 11.79296875 30.19921875 C11.47984951 36.30504402 8.6604403 40.65221315 4.79296875 45.19921875 C-1.35890938 50.45051266 -8.93727374 52.74250255 -16.99609375 52.51953125 C-24.5317397 51.42779456 -31.59501889 48.46796063 -36.5390625 42.625 C-41.27437843 36.1156464 -42.49726726 28.35816378 -42.05078125 20.421875 C-40.89758474 13.22548527 -37.76803278 7.27039927 -32.33203125 2.38671875 C-22.85149365 -4.24965757 -10.51759827 -5.62385649 0 0 Z " fill="#010101" transform="translate(264.20703125,45.80078125)"/>
<path d="M0 0 C18.48 0 36.96 0 56 0 C56 2.97 56 5.94 56 9 C48.41 9 40.82 9 33 9 C33 29.13 33 49.26 33 70 C29.7 70 26.4 70 23 70 C23 49.87 23 29.74 23 9 C15.41 9 7.82 9 0 9 C0 6.03 0 3.06 0 0 Z " fill="#010101" transform="translate(284,26)"/>
<path d="M0 0 C2.64 0 5.28 0 8 0 C8.33 1.98 8.66 3.96 9 6 C9.721875 5.38125 10.44375 4.7625 11.1875 4.125 C15.87481419 0.58347372 19.46690827 -0.25347454 25.3125 -0.125 C26.38113281 -0.10695312 27.44976562 -0.08890625 28.55078125 -0.0703125 C29.35902344 -0.04710937 30.16726563 -0.02390625 31 0 C31 2.97 31 5.94 31 9 C30.27554687 9.03738281 29.55109375 9.07476562 28.8046875 9.11328125 C20.87264673 9.48581329 20.87264673 9.48581329 14 13 C9.34428349 20.86848155 9.34715751 29.22183918 9.25 38.125 C9.22177409 39.47659956 9.19183767 40.82816452 9.16015625 42.1796875 C9.0900099 45.45318362 9.03703775 48.72599019 9 52 C6.03 52 3.06 52 0 52 C0 34.84 0 17.68 0 0 Z " fill="#020202" transform="translate(408,44)"/>
<path d="M0 0 C2.97 0 5.94 0 9 0 C9 17.16 9 34.32 9 52 C6.03 52 3.06 52 0 52 C0 34.84 0 17.68 0 0 Z " fill="#000000" transform="translate(200,44)"/>
<path d="M0 0 C1.8125 1.125 1.8125 1.125 3 3 C3.36528977 6.4093712 3.6140629 8.88023824 1.9375 11.9375 C-1.1652833 13.63902633 -3.53769185 13.42519574 -7 13 C-9.4375 11.375 -9.4375 11.375 -11 9 C-11.4669578 5.73129539 -11.65475278 3.90418241 -9.6875 1.1875 C-6.26446464 -1.22130266 -3.87230682 -1.16169205 0 0 Z " fill="#020202" transform="translate(208,23)"/>
<path d="M0 0 C12.87 0 25.74 0 39 0 C40.63656638 6.54626553 41.35503013 11.23288298 41.3125 17.75 C41.30621582 19.06726074 41.30621582 19.06726074 41.29980469 20.41113281 C41.12358911 30.5903946 38.96126612 39.10393661 34 48 C33.67 48 33.34 48 33 48 C33 46.35 33 44.7 33 43 C33.66 43 34.32 43 35 43 C35.66 39.37 36.32 35.74 37 32 C37.66 32 38.32 32 39 32 C39 22.76 39 13.52 39 4 C38.34 4 37.68 4 37 4 C37 3.01 37 2.02 37 1 C25.78 1 14.56 1 3 1 C4.40465541 6.74772619 4.40465541 6.74772619 7.1875 9.125 C8.0846875 10.053125 8.0846875 10.053125 9 11 C8.75 13.25 8.75 13.25 8 15 C5.84821844 12.23612808 4.01629579 9.43466931 2.3125 6.375 C1.87550781 5.59898438 1.43851562 4.82296875 0.98828125 4.0234375 C0 2 0 2 0 0 Z " fill="#1D74DD" transform="translate(78,43)"/>
<path d="M0 0 C20.13 0 40.26 0 61 0 C59.02 3.96 57.04 7.92 55 12 C54 8 54 8 55 1 C39.49 1 23.98 1 8 1 C7.34 3.97 6.68 6.94 6 10 C3.36335259 7.36335259 1.744776 5.24029829 0 2 C0 1.34 0 0.68 0 0 Z " fill="#1477E3" transform="translate(5,86)"/>
<path d="M0 0 C0.6875 1.625 0.6875 1.625 1 4 C-1.33333333 9.66666667 -1.33333333 9.66666667 -4 11 C-4.33 11.99 -4.66 12.98 -5 14 C13.15 14 31.3 14 50 14 C50.33 13.01 50.66 12.02 51 11 C51.66 12.32 52.32 13.64 53 15 C32.87 15 12.74 15 -8 15 C-2.375 3.75 -2.375 3.75 0 0 Z " fill="#0F77E3" transform="translate(61,21)"/>
<path d="M0 0 C3.48247874 1.16082625 3.88819244 1.90932476 5.75 4.9375 C6.19859375 5.64777344 6.6471875 6.35804687 7.109375 7.08984375 C7.55023437 8.03537109 7.55023437 8.03537109 8 9 C7.67 9.66 7.34 10.32 7 11 C6.01 10.34 5.02 9.68 4 9 C4 7.68 4 6.36 4 5 C3.21625 5.495 2.4325 5.99 1.625 6.5 C-1 8 -1 8 -3 8 C-3 9.32 -3 10.64 -3 12 C-2.34 12 -1.68 12 -1 12 C-1.33 12.99 -1.66 13.98 -2 15 C-2.99 15 -3.98 15 -5 15 C-4.938125 16.423125 -4.938125 16.423125 -4.875 17.875 C-5 21 -5 21 -7 23 C-7.40047444 25.32275177 -7.7397104 27.65739357 -8 30 C-8.33 30 -8.66 30 -9 30 C-9.85210328 19.13568319 -5.72079621 9.07355793 0 0 Z " fill="#187AE1" transform="translate(9,28)"/>
<path d="M0 0 C11.28633439 1.75132775 21.82713716 7.02172914 30 15 C29.67 15.66 29.34 16.32 29 17 C26.5 15.625 26.5 15.625 24 14 C24 13.34 24 12.68 24 12 C22.35 12 20.7 12 19 12 C18.79375 11.38125 18.5875 10.7625 18.375 10.125 C16.45224112 7.15346355 14.33405473 6.86975341 11 6 C11 5.34 11 4.68 11 4 C9.9171875 4.061875 9.9171875 4.061875 8.8125 4.125 C5.79270631 3.99078695 3.73064271 3.24829381 1 2 C0.9175 2.61875 0.835 3.2375 0.75 3.875 C0 6 0 6 -2.0625 7.25 C-3.0215625 7.62125 -3.0215625 7.62125 -4 8 C-2.87548273 5.0280615 -1.77706209 2.66559313 0 0 Z " fill="#1C77DC" transform="translate(72,3)"/>
<path d="M0 0 C0.33 0 0.66 0 1 0 C1.625 2.8125 1.625 2.8125 2 6 C1.01 7.485 1.01 7.485 0 9 C-0.99 9 -1.98 9 -3 9 C-3 9.66 -3 10.32 -3 11 C-0.47891897 10.85775413 2.04180403 10.71129879 4.5625 10.5625 C5.26697266 10.52318359 5.97144531 10.48386719 6.69726562 10.44335938 C11.1798541 10.17481721 15.56293497 9.69383803 20 9 C12.18848608 14.20767595 2.9937464 13.21079093 -6 13 C-4.48525928 8.18285158 -2.58417449 4.30695748 0 0 Z " fill="#2478D6" transform="translate(60,108)"/>
<path d="M0 0 C3.6607519 1.22025063 3.92339441 2.126491 5.6875 5.4375 C6.34298828 6.64212891 6.34298828 6.64212891 7.01171875 7.87109375 C8 10 8 10 8 12 C7.30132812 11.7834375 6.60265625 11.566875 5.8828125 11.34375 C4.97273438 11.0653125 4.06265625 10.786875 3.125 10.5 C2.22007813 10.2215625 1.31515625 9.943125 0.3828125 9.65625 C-1.90944647 8.91149206 -1.90944647 8.91149206 -4 9 C-2.80100302 5.9168649 -1.52299523 2.93720508 0 0 Z " fill="#0A79F4" transform="translate(83,68)"/>
<path d="M0 0 C12.21 0 24.42 0 37 0 C37 0.33 37 0.66 37 1 C25.78 1 14.56 1 3 1 C4.40465541 6.74772619 4.40465541 6.74772619 7.1875 9.125 C8.0846875 10.053125 8.0846875 10.053125 9 11 C8.75 13.25 8.75 13.25 8 15 C5.84821844 12.23612808 4.01629579 9.43466931 2.3125 6.375 C1.87550781 5.59898438 1.43851562 4.82296875 0.98828125 4.0234375 C0 2 0 2 0 0 Z " fill="#1A85F5" transform="translate(78,43)"/>
<path d="M0 0 C-1.41292095 4.8274799 -3.42974154 8.7162359 -6 13 C-7.1577506 9.52674819 -7.06866652 6.63932552 -7 3 C-6.34 3 -5.68 3 -5 3 C-5 2.34 -5 1.68 -5 1 C-8.96 1 -12.92 1 -17 1 C-17 0.67 -17 0.34 -17 0 C-14.72979256 -0.19493195 -12.45879711 -0.38070418 -10.1875 -0.5625 C-8.92292969 -0.66691406 -7.65835938 -0.77132812 -6.35546875 -0.87890625 C-3 -1 -3 -1 0 0 Z " fill="#117AE1" transform="translate(65,2)"/>
<path d="M0 0 C0.99 0.495 0.99 0.495 2 1 C2 1.99 2 2.98 2 4 C14.54 3.67 27.08 3.34 40 3 C39.67 3.99 39.34 4.98 39 6 C26.46 5.67 13.92 5.34 1 5 C0.67 3.35 0.34 1.7 0 0 Z " fill="#3580CF" transform="translate(1,74)"/>
<path d="M0 0 C3.69790046 1.23263349 3.9354846 2.20052451 5.6875 5.5625 C6.12449219 6.38878906 6.56148437 7.21507812 7.01171875 8.06640625 C7.33785156 8.70449219 7.66398437 9.34257813 8 10 C8.66 8.68 9.32 7.36 10 6 C9.34 5.34 8.68 4.68 8 4 C8.99 3.34 9.98 2.68 11 2 C11 2.66 11 3.32 11 4 C11.66 4 12.32 4 13 4 C13 3.34 13 2.68 13 2 C13.66 2.33 14.32 2.66 15 3 C12.03 7.95 12.03 7.95 9 13 C5.84786708 9.84786708 4.23499583 7.99943656 2.25 4.25 C1.60804687 3.05117188 1.60804687 3.05117188 0.953125 1.828125 C0.63859375 1.22484375 0.3240625 0.6215625 0 0 Z " fill="#237CDB" transform="translate(26,42)"/>
<path d="M0 0 C2.2477975 2.05233685 3.0022242 3.00667261 4 6 C3 7 3 7 -0.41821289 7.11352539 C-1.93636988 7.11336628 -3.45453229 7.10767226 -4.97265625 7.09765625 C-5.77029892 7.0962413 -6.56794159 7.09482635 -7.38975525 7.09336853 C-9.94737435 7.08775316 -12.50490718 7.07519812 -15.0625 7.0625 C-16.79231645 7.05748698 -18.52213426 7.05292373 -20.25195312 7.04882812 C-24.50133553 7.03777875 -28.75065312 7.02050386 -33 7 C-33 6.67 -33 6.34 -33 6 C-21.78 6 -10.56 6 1 6 C0.505 3.03 0.505 3.03 0 0 Z " fill="#1178E7" transform="translate(36,71)"/>
<path d="M0 0 C3.48247874 1.16082625 3.88819244 1.90932476 5.75 4.9375 C6.19859375 5.64777344 6.6471875 6.35804687 7.109375 7.08984375 C7.40328125 7.72019531 7.6971875 8.35054687 8 9 C7.67 9.66 7.34 10.32 7 11 C6.01 10.34 5.02 9.68 4 9 C4 7.68 4 6.36 4 5 C3.21625 5.495 2.4325 5.99 1.625 6.5 C-1 8 -1 8 -3 8 C-2.45276317 4.62537285 -1.9451 2.91765 0 0 Z " fill="#1A76DB" transform="translate(9,28)"/>
<path d="M0 0 C0 0.66 0 1.32 0 2 C-3.96 2.66 -7.92 3.32 -12 4 C-12 4.66 -12 5.32 -12 6 C-13.32 6 -14.64 6 -16 6 C-16 6.66 -16 7.32 -16 8 C-17.98 8.33 -19.96 8.66 -22 9 C-18.88342685 5.43384783 -15.9762653 3.90324851 -11.5625 2.25 C-10.45003906 1.82203125 -9.33757813 1.3940625 -8.19140625 0.953125 C-5.24031314 0.07177039 -3.04862251 -0.20514095 0 0 Z " fill="#2179DC" transform="translate(48,3)"/>
<path d="M0 0 C0.99 0.33 1.98 0.66 3 1 C2.34 2.65 1.68 4.3 1 6 C-3.83628305 5.00956295 -8.47618873 4.04301154 -13 2 C-9.92677456 1.08941469 -7.19902639 0.91113816 -4 1 C-4 1.66 -4 2.32 -4 3 C-3.01 3 -2.02 3 -1 3 C-0.67 2.01 -0.34 1.02 0 0 Z " fill="#1F75DC" transform="translate(47,114)"/>
<path d="M0 0 C1.98 0 3.96 0 6 0 C5.34 2.97 4.68 5.94 4 9 C0.68987756 5.68987756 0.49648935 4.46840411 0 0 Z " fill="#0C78F0" transform="translate(7,87)"/>
<path d="M0 0 C0.66 0 1.32 0 2 0 C2 0.66 2 1.32 2 2 C3.32 2 4.64 2 6 2 C6.103125 3.051875 6.20625 4.10375 6.3125 5.1875 C6.98485228 8.91599898 8.06714408 10.83714485 10 14 C9.67 14.99 9.34 15.98 9 17 C7.49743011 14.35559624 5.9978388 11.70958148 4.5 9.0625 C4.07074219 8.30775391 3.64148438 7.55300781 3.19921875 6.77539062 C2.79316406 6.05673828 2.38710937 5.33808594 1.96875 4.59765625 C1.59169922 3.93258057 1.21464844 3.26750488 0.82617188 2.58227539 C0 1 0 1 0 0 Z " fill="#1B79DD" transform="translate(86,58)"/>
<path d="M0 0 C0.33 0.99 0.66 1.98 1 3 C3.01508358 3.73323796 3.01508358 3.73323796 5 4 C5.12375 4.7425 5.2475 5.485 5.375 6.25 C5.86889456 8.97537272 5.86889456 8.97537272 7.125 11.125 C8 13 8 13 7 16 C5.63597957 13.7136988 4.28365726 11.42178251 2.9375 9.125 C2.54755859 8.47402344 2.15761719 7.82304687 1.75585938 7.15234375 C0.77555467 5.46934275 -0.11898432 3.73703801 -1 2 C-0.67 1.34 -0.34 0.68 0 0 Z " fill="#2474DE" transform="translate(15,20)"/>
<path d="M0 0 C1.19338573 4.77354291 0.45563239 5.90727934 -2 10 C-2.99 10.495 -2.99 10.495 -4 11 C-4 12.32 -4 13.64 -4 15 C-5.32 14.67 -6.64 14.34 -8 14 C-5.36 9.38 -2.72 4.76 0 0 Z " fill="#237ADC" transform="translate(61,21)"/>
<path d="M0 0 C0.99 0.33 1.98 0.66 3 1 C4.1875 4.0625 4.1875 4.0625 5 7 C4.34 7 3.68 7 3 7 C3 6.34 3 5.68 3 5 C1.35 5.33 -0.3 5.66 -2 6 C-2 6.99 -2 7.98 -2 9 C-2.66 9 -3.32 9 -4 9 C-2.80100302 5.9168649 -1.52299523 2.93720508 0 0 Z " fill="#217ADE" transform="translate(83,68)"/>
<path d="M0 0 C5.35152885 0.32433508 8.28280043 3.49704824 12 7 C11.67 7.66 11.34 8.32 11 9 C8.5 7.625 8.5 7.625 6 6 C6 5.34 6 4.68 6 4 C4.35 4 2.7 4 1 4 C0.67 2.68 0.34 1.36 0 0 Z " fill="#1770E5" transform="translate(90,11)"/>
<path d="M0 0 C0.99 0.33 1.98 0.66 3 1 C3.66666667 3 4.33333333 5 5 7 C5.721875 7.70125 6.44375 8.4025 7.1875 9.125 C8.0846875 10.053125 8.0846875 10.053125 9 11 C8.75 13.25 8.75 13.25 8 15 C5.84821844 12.23612808 4.01629579 9.43466931 2.3125 6.375 C1.87550781 5.59898438 1.43851562 4.82296875 0.98828125 4.0234375 C0 2 0 2 0 0 Z " fill="#2278DE" transform="translate(78,43)"/>
<path d="M0 0 C0.33 0 0.66 0 1 0 C1.625 2.8125 1.625 2.8125 2 6 C1.01 7.485 1.01 7.485 0 9 C-0.99 9 -1.98 9 -3 9 C-3.33 9.66 -3.66 10.32 -4 11 C-3.49172849 6.62886504 -2.54826592 3.61004338 0 0 Z " fill="#1777E4" transform="translate(60,108)"/>
<path d="M0 0 C1.32 0.33 2.64 0.66 4 1 C1.525 5.455 1.525 5.455 -1 10 C-1.66 8.68 -2.32 7.36 -3 6 C-2.01 5.67 -1.02 5.34 0 5 C0 3.35 0 1.7 0 0 Z " fill="#1879E2" transform="translate(44,32)"/>
<path d="M0 0 C0.68359375 1.734375 0.68359375 1.734375 1 4 C-0.21484375 6.140625 -0.21484375 6.140625 -1.9375 8.25 C-2.50339844 8.95640625 -3.06929687 9.6628125 -3.65234375 10.390625 C-4.31943359 11.18726562 -4.31943359 11.18726562 -5 12 C-5 8.55639368 -4.20408468 7.25204608 -2.5 4.3125 C-2.0359375 3.50425781 -1.571875 2.69601563 -1.09375 1.86328125 C-0.7328125 1.24839844 -0.371875 0.63351563 0 0 Z " fill="#2775D5" transform="translate(67,96)"/>
<path d="M0 0 C2.25245881 2.68841859 3.88213958 4.64641875 5 8 C3.68 8.99 2.36 9.98 1 11 C1.33 8.69 1.66 6.38 2 4 C1.34 4 0.68 4 0 4 C0 2.68 0 1.36 0 0 Z " fill="#2177D7" transform="translate(99,94)"/>
<path d="M0 0 C2.79872437 2.52788007 4.45773019 4.20411134 5 8 C2.525 7.01 2.525 7.01 0 6 C0 4.02 0 2.04 0 0 Z " fill="#1379E3" transform="translate(106,24)"/>
<path d="M0 0 C0.66 0.33 1.32 0.66 2 1 C0.02 3.31 -1.96 5.62 -4 8 C-5.32 7.67 -6.64 7.34 -8 7 C-5.36 4.69 -2.72 2.38 0 0 Z " fill="#2473E0" transform="translate(24,12)"/>
<path d="M0 0 C2.02045442 0.60183749 4.02111039 1.27306096 6 2 C6.33 2.66 6.66 3.32 7 4 C6.01 5.485 6.01 5.485 5 7 C0 1.125 0 1.125 0 0 Z " fill="#0C79EF" transform="translate(24,38)"/>
<path d="M0 0 C0.66 0.99 1.32 1.98 2 3 C1.34 3.66 0.68 4.32 0 5 C-0.40047444 7.32275177 -0.7397104 9.65739357 -1 12 C-1.33 12 -1.66 12 -2 12 C-2.28571429 3.42857143 -2.28571429 3.42857143 0 0 Z " fill="#1886F5" transform="translate(2,46)"/>
</svg>
